<svg xmlns="http://www.w3.org/2000/svg" width="46.89" height="7.12" viewBox="0 0 46.89 7.12">
  <path id="ARTWORK" d="M4.53-1.88H1.97c-.1.27-.19.55-.29.84s-.21.58-.3.83H.01l2.5-6.9H3.99l2.5,6.9H5.12ZM4.16-2.95c-.16-.44-.31-.87-.45-1.3-.16-.42-.31-.85-.46-1.29L2.33-2.95Zm3.1-3.04c0-.16-.01-.34-.01-.56-.01-.2-.02-.39-.03-.56H9.24a8.811,8.811,0,0,1,1.04.06,2.991,2.991,0,0,1,.89.27,1.726,1.726,0,0,1,.62.58,1.959,1.959,0,0,1,.23.99,1.723,1.723,0,0,1-.09.58,1.614,1.614,0,0,1-.26.45,1.524,1.524,0,0,1-.38.34,2.2,2.2,0,0,1-.46.23,1.581,1.581,0,0,1,.47.54L12.59-.21H11.13L10.1-2.6v.01a2.614,2.614,0,0,0-.2-.32,1.458,1.458,0,0,0-.22-.17,2.172,2.172,0,0,0-.24-.07c-.1,0-.2-.01-.3-.01H8.55v1.83c0,.17,0,.36.01.57a4.446,4.446,0,0,0,.02.55H7.22c.01-.15.02-.33.03-.55s.01-.4.01-.57ZM8.55-4.26h.88a1.68,1.68,0,0,0,.92-.24.78.78,0,0,0,.36-.71.736.736,0,0,0-.29-.61,1.574,1.574,0,0,0-.9-.21H8.55Zm7.57-1.75v4.68c0,.16,0,.31.01.47s.01.38.03.65H14.77c.01-.16.02-.35.03-.56V-6.01H13.65c-.14,0-.29.01-.46.01s-.34.02-.47.03V-7.15a3.628,3.628,0,0,0,.5.03c.18.01.34.01.48.01h3.52c.13,0,.29,0,.48-.01a3.84,3.84,0,0,0,.5-.03v1.18c-.14-.01-.29-.02-.47-.03s-.34-.01-.47-.01ZM24.3-1.85l1.43-5.26h1.41L25.13-.21H23.55l-.78-2.57L21.99-.21H20.41L18.4-7.11h1.42l1.42,5.26.86-3.1-.65-2.16h1.38Zm4.66-1.81a4.458,4.458,0,0,0,.09.91,2.124,2.124,0,0,0,.29.79,1.362,1.362,0,0,0,.54.55,1.539,1.539,0,0,0,.84.21,1.587,1.587,0,0,0,.84-.21,1.526,1.526,0,0,0,.55-.55,2.543,2.543,0,0,0,.29-.79,5.313,5.313,0,0,0,.08-.91,4.731,4.731,0,0,0-.09-.93,2.707,2.707,0,0,0-.31-.78,1.772,1.772,0,0,0-.54-.55,1.632,1.632,0,0,0-.82-.2,1.568,1.568,0,0,0-.81.2,1.7,1.7,0,0,0-.55.55,2.436,2.436,0,0,0-.3.78A4.078,4.078,0,0,0,28.96-3.66Zm-1.31,0a4.538,4.538,0,0,1,.22-1.47,3.3,3.3,0,0,1,.62-1.12,2.928,2.928,0,0,1,.97-.72,3.146,3.146,0,0,1,1.26-.25,3.269,3.269,0,0,1,1.27.25,3.106,3.106,0,0,1,.96.72,3.679,3.679,0,0,1,.62,1.12,4.827,4.827,0,0,1,.22,1.47,4.845,4.845,0,0,1-.22,1.48,3.355,3.355,0,0,1-.62,1.12,2.673,2.673,0,0,1-.96.71,3.1,3.1,0,0,1-1.27.25,2.985,2.985,0,0,1-1.26-.25,2.546,2.546,0,0,1-.97-.71,3.04,3.04,0,0,1-.62-1.12A4.558,4.558,0,0,1,27.65-3.66Zm7.33-2.33c0-.16-.01-.34-.01-.56-.01-.2-.02-.39-.03-.56h2.02A8.811,8.811,0,0,1,38-7.05a2.991,2.991,0,0,1,.89.27,1.726,1.726,0,0,1,.62.58,1.959,1.959,0,0,1,.23.99,1.723,1.723,0,0,1-.09.58,1.614,1.614,0,0,1-.26.45,1.524,1.524,0,0,1-.38.34,2.2,2.2,0,0,1-.46.23,1.581,1.581,0,0,1,.47.54L40.31-.21H38.85L37.82-2.6v.01a2.614,2.614,0,0,0-.2-.32,1.458,1.458,0,0,0-.22-.17,2.172,2.172,0,0,0-.24-.07c-.1,0-.2-.01-.3-.01h-.59v1.83c0,.17,0,.36.01.57a4.446,4.446,0,0,0,.02.55H34.94c.01-.15.02-.33.03-.55s.01-.4.01-.57Zm1.29,1.73h.88a1.68,1.68,0,0,0,.92-.24.78.78,0,0,0,.36-.71.736.736,0,0,0-.29-.61,1.574,1.574,0,0,0-.9-.21h-.97Zm6.12,3.13c0,.13,0,.28.01.46a3.1,3.1,0,0,0,.02.46H41.06c.01-.15.02-.34.03-.56s.01-.4.01-.56V-6.46c-.01-.16-.03-.37-.05-.65h1.37a3.393,3.393,0,0,0-.02.47c-.01.19-.01.34-.01.46v1.72l2.58-2.65H46.6L43.41-3.85,46.9-.21H45.21l-2.82-3Z" transform="translate(-0.01 7.22)" fill="#0d0d0d" opacity="0.6"/>
</svg>
