<svg xmlns="http://www.w3.org/2000/svg" width="1196.24" height="475.5" viewBox="0 0 1196.24 475.5">
  <g id="BG03" transform="translate(-360 -1594)">
    <path id="패스_11" data-name="패스 11" d="M.86,0h1.6V-2.55a24.72,24.72,0,0,0-.23-2.58h.04l.6,1.78L3.88-.63h.98l1-2.72.62-1.78h.05a22.288,22.288,0,0,0-.24,2.58V0H7.92V-7.45H5.98L4.84-4.23c-.14.43-.26.9-.41,1.35H4.38c-.14-.45-.26-.92-.41-1.35L2.79-7.45H.86ZM9.63,0h1.79V-7.45H9.63Zm3.5,0h4.69V-1.5h-2.9V-7.45H13.13Zm6.05,0h1.79V-5.96h2.02V-7.45H17.17v1.49h2.01Zm7.7.14c2.03,0,3.41-1.46,3.41-3.9s-1.38-3.82-3.41-3.82S23.47-6.2,23.47-3.76,24.85.14,26.88.14Zm0-1.54c-.98,0-1.58-.92-1.58-2.36s.6-2.29,1.58-2.29,1.59.85,1.59,2.29S27.86-1.4,26.88-1.4ZM31.67,0h1.7V-2.47c0-.9-.15-1.92-.23-2.75h.05l.73,1.63L35.76,0h1.82V-7.45h-1.7v2.47a25.828,25.828,0,0,0,.24,2.75h-.05l-.73-1.65L33.49-7.45H31.67ZM44.95.14a3.682,3.682,0,0,0,2.48-.91V-4.25H44.66v1.46h1.18v1.2a1.256,1.256,0,0,1-.7.19c-1.39,0-2.05-.86-2.05-2.34,0-1.45.79-2.31,1.89-2.31a1.933,1.933,0,0,1,1.38.58l.94-1.14a3.285,3.285,0,0,0-2.38-.97,3.611,3.611,0,0,0-3.66,3.9A3.509,3.509,0,0,0,44.95.14ZM48.93,0h4.69V-1.5h-2.9V-7.45H48.93Zm7.7-3.72c.19-.74.39-1.61.57-2.39h.04c.2.76.39,1.65.59,2.39l.16.63H56.47ZM53.88,0H55.7l.43-1.71h2.2L58.76,0h1.88L58.33-7.45H56.19Zm9.85.14c1.8,0,2.84-1.09,2.84-2.33A2.057,2.057,0,0,0,65.1-4.23l-.93-.37c-.66-.26-1.12-.42-1.12-.84,0-.39.33-.61.88-.61a2.42,2.42,0,0,1,1.53.57l.89-1.12a3.462,3.462,0,0,0-2.42-.98,2.447,2.447,0,0,0-2.7,2.25,2.179,2.179,0,0,0,1.51,2.04l.95.4c.64.27,1.05.41,1.05.84,0,.4-.31.65-.97.65a2.958,2.958,0,0,1-1.8-.76L60.95-.93A4.164,4.164,0,0,0,63.73.14ZM67.81,0h4.83V-1.5H69.6V-3.08h2.49v-1.5H69.6V-5.96h2.93V-7.45H67.81Zm6.3,0H75.9V-2.62h.86L78.13,0h2L78.47-2.95A2.2,2.2,0,0,0,79.75-5.1c0-1.8-1.32-2.35-2.91-2.35H74.11ZM75.9-4.03v-2h.8c.85,0,1.31.23,1.31.93s-.46,1.07-1.31,1.07Zm7.61,6.3A2.7,2.7,0,0,0,85.64-.41c0-1.04-.43-1.66-1.21-1.66a1.025,1.025,0,0,0-1.11,1,1,1,0,0,0,1.06,1h.09c.01.55-.45,1.09-1.32,1.39Zm7.24-.28.72-.32a9.337,9.337,0,0,1-1.26-4.8,9.389,9.389,0,0,1,1.26-4.8l-.72-.31a9.423,9.423,0,0,0-1.48,5.11A9.432,9.432,0,0,0,90.75,1.99ZM92.79,0h4.2V-.95H95.55V-7.16h-.87a4.333,4.333,0,0,1-1.6.56v.73H94.4V-.95H92.79Zm6.34-4.97c0-.91.5-1.44,1.13-1.44.78,0,1.32.61,1.45,1.93a1.719,1.719,0,0,1-1.38.89C99.55-3.59,99.13-4.09,99.13-4.97Zm.89,5.1c1.45,0,2.78-1.13,2.78-3.95,0-2.37-1.14-3.48-2.55-3.48a2.2,2.2,0,0,0-2.19,2.33,1.951,1.951,0,0,0,2.07,2.21,2.174,2.174,0,0,0,1.61-.87c-.05,2.1-.84,2.82-1.78,2.82a1.546,1.546,0,0,1-1.15-.55l-.63.71A2.432,2.432,0,0,0,100.02.13ZM103.77,0h4.75V-.98h-1.87c-.36,0-.83.03-1.2.07,1.53-1.6,2.72-2.92,2.72-4.23a2.058,2.058,0,0,0-2.22-2.16,2.888,2.888,0,0,0-2.24,1.1l.65.64a2,2,0,0,1,1.45-.82,1.165,1.165,0,0,1,1.25,1.3c0,1.12-1.24,2.4-3.29,4.41Zm6.76-4.97c0-.91.5-1.44,1.13-1.44.78,0,1.32.61,1.45,1.93a1.719,1.719,0,0,1-1.38.89C110.95-3.59,110.53-4.09,110.53-4.97Zm.89,5.1c1.45,0,2.78-1.13,2.78-3.95,0-2.37-1.14-3.48-2.55-3.48a2.2,2.2,0,0,0-2.19,2.33,1.951,1.951,0,0,0,2.07,2.21,2.174,2.174,0,0,0,1.61-.87c-.05,2.1-.84,2.82-1.78,2.82a1.546,1.546,0,0,1-1.15-.55l-.63.71A2.432,2.432,0,0,0,111.42.13Zm4.8,0a.765.765,0,0,0,.77-.8.777.777,0,0,0-.77-.82.777.777,0,0,0-.77.82A.765.765,0,0,0,116.22.13Zm6.72-3.7c.78,0,1.22.49,1.22,1.37,0,.91-.51,1.45-1.15,1.45-.78,0-1.31-.62-1.43-1.95A1.716,1.716,0,0,1,122.94-3.57Zm.08,3.7a2.2,2.2,0,0,0,2.2-2.33,1.955,1.955,0,0,0-2.07-2.21,2.227,2.227,0,0,0-1.6.86c.05-2.1.83-2.8,1.76-2.8a1.576,1.576,0,0,1,1.16.54l.63-.7a2.472,2.472,0,0,0-1.84-.79c-1.46,0-2.78,1.14-2.78,3.96C120.48-.98,121.62.13,123.02.13Zm4.13,0a.765.765,0,0,0,.77-.8.777.777,0,0,0-.77-.82.777.777,0,0,0-.77.82A.765.765,0,0,0,127.15.13ZM131.33,0h4.75V-.98h-1.87c-.36,0-.83.03-1.2.07,1.53-1.6,2.72-2.92,2.72-4.23a2.058,2.058,0,0,0-2.22-2.16,2.888,2.888,0,0,0-2.24,1.1l.65.64a2,2,0,0,1,1.45-.82,1.165,1.165,0,0,1,1.25,1.3c0,1.12-1.24,2.4-3.29,4.41Zm8.24-3.57c.78,0,1.22.49,1.22,1.37,0,.91-.51,1.45-1.15,1.45-.78,0-1.31-.62-1.43-1.95A1.716,1.716,0,0,1,139.57-3.57Zm.08,3.7a2.2,2.2,0,0,0,2.2-2.33,1.955,1.955,0,0,0-2.07-2.21,2.227,2.227,0,0,0-1.6.86c.05-2.1.83-2.8,1.76-2.8a1.576,1.576,0,0,1,1.16.54l.63-.7a2.472,2.472,0,0,0-1.84-.79c-1.46,0-2.78,1.14-2.78,3.96C137.11-.98,138.25.13,139.65.13Zm4.13,0a.765.765,0,0,0,.77-.8.777.777,0,0,0-.77-.82.777.777,0,0,0-.77.82A.765.765,0,0,0,143.78.13Zm5.32-2.96a1.841,1.841,0,0,0,1.49-1.05l-.63-.47c-.25.47-.52.68-.84.68-.63,0-1.08-.92-1.98-.92a1.789,1.789,0,0,0-1.49,1.06l.62.45c.25-.46.53-.67.85-.67C147.75-3.75,148.2-2.83,149.1-2.83ZM151.41,0h4.75V-.98h-1.87c-.36,0-.83.03-1.2.07,1.53-1.6,2.72-2.92,2.72-4.23a2.058,2.058,0,0,0-2.22-2.16,2.888,2.888,0,0,0-2.24,1.1l.65.64a2,2,0,0,1,1.45-.82,1.165,1.165,0,0,1,1.25,1.3c0,1.12-1.24,2.4-3.29,4.41Zm8.11.13c1.47,0,2.38-1.33,2.38-3.74s-.91-3.69-2.38-3.69-2.38,1.28-2.38,3.69S158.06.13,159.52.13Zm0-.91c-.75,0-1.28-.77-1.28-2.83s.53-2.78,1.28-2.78,1.28.72,1.28,2.78S160.27-.78,159.52-.78Zm3.29.78h4.75V-.98h-1.87c-.36,0-.83.03-1.2.07,1.53-1.6,2.72-2.92,2.72-4.23a2.058,2.058,0,0,0-2.22-2.16,2.888,2.888,0,0,0-2.24,1.1l.65.64a2,2,0,0,1,1.45-.82,1.165,1.165,0,0,1,1.25,1.3c0,1.12-1.24,2.4-3.29,4.41Zm8.11.13c1.47,0,2.38-1.33,2.38-3.74s-.91-3.69-2.38-3.69-2.38,1.28-2.38,3.69S169.46.13,170.92.13Zm0-.91c-.75,0-1.28-.77-1.28-2.83s.53-2.78,1.28-2.78,1.28.72,1.28,2.78S171.67-.78,170.92-.78Zm4.34.91a.765.765,0,0,0,.77-.8.777.777,0,0,0-.77-.82.777.777,0,0,0-.77.82A.765.765,0,0,0,175.26.13Zm4.47-3.7c.78,0,1.22.49,1.22,1.37,0,.91-.51,1.45-1.15,1.45-.78,0-1.31-.62-1.43-1.95A1.716,1.716,0,0,1,179.73-3.57Zm.08,3.7a2.2,2.2,0,0,0,2.2-2.33,1.955,1.955,0,0,0-2.07-2.21,2.227,2.227,0,0,0-1.6.86c.05-2.1.83-2.8,1.76-2.8a1.576,1.576,0,0,1,1.16.54l.63-.7a2.472,2.472,0,0,0-1.84-.79c-1.46,0-2.78,1.14-2.78,3.96C177.27-.98,178.41.13,179.81.13Zm4.13,0a.765.765,0,0,0,.77-.8.777.777,0,0,0-.77-.82.777.777,0,0,0-.77.82A.765.765,0,0,0,183.94.13ZM185.87,0h4.75V-.98h-1.87c-.36,0-.83.03-1.2.07,1.53-1.6,2.72-2.92,2.72-4.23a2.058,2.058,0,0,0-2.22-2.16,2.888,2.888,0,0,0-2.24,1.1l.65.64a2,2,0,0,1,1.45-.82,1.165,1.165,0,0,1,1.25,1.3c0,1.12-1.24,2.4-3.29,4.41Zm8.24-3.57c.78,0,1.22.49,1.22,1.37,0,.91-.51,1.45-1.15,1.45-.78,0-1.31-.62-1.43-1.95A1.716,1.716,0,0,1,194.11-3.57Zm.08,3.7a2.2,2.2,0,0,0,2.2-2.33,1.955,1.955,0,0,0-2.07-2.21,2.227,2.227,0,0,0-1.6.86c.05-2.1.83-2.8,1.76-2.8a1.576,1.576,0,0,1,1.16.54l.63-.7a2.472,2.472,0,0,0-1.84-.79c-1.46,0-2.78,1.14-2.78,3.96C191.65-.98,192.79.13,194.19.13Zm3.82,1.86a9.355,9.355,0,0,0,1.49-5.12,9.346,9.346,0,0,0-1.49-5.11l-.72.31a9.388,9.388,0,0,1,1.26,4.8,9.337,9.337,0,0,1-1.26,4.8Z" transform="translate(1548 1870) rotate(90)"/>
    <text id="MILTON_GLASER_1929._6._26._2020.6.26_" data-name="MILTON GLASER , (1929. 6. 26.~2020.6.26)" transform="translate(363 1594) rotate(90)" fill="none" font-size="10" font-family="NotoSansKR-Black, Noto Sans KR" font-weight="800"><tspan x="0" y="0">MILTON GLASER ,</tspan><tspan y="0" xml:space="preserve" font-family="NotoSansKR-Medium, Noto Sans KR" font-weight="500"> (1929. 6. 26.~2020.6.26)</tspan></text>
  </g>
</svg>
