<svg xmlns="http://www.w3.org/2000/svg" width="61.41" height="21.83" viewBox="0 0 61.41 21.83">
  <g id="chain01" transform="translate(-929.645 -1018.17)">
    <path id="패스_9" data-name="패스 9" d="M9.135-8.22a5.518,5.518,0,0,0-2.97-.96,3.7,3.7,0,0,0-1.455.27,3.392,3.392,0,0,0-1.125.765,3.335,3.335,0,0,0-.72,1.17,3.935,3.935,0,0,0-.255,1.47,3.987,3.987,0,0,0,.27,1.5,2.939,2.939,0,0,0,.735,1.17A3.242,3.242,0,0,0,4.77-2.07a3.831,3.831,0,0,0,1.47.27c.2,0,.405,0,.63-.015A1.851,1.851,0,0,0,7.5-1.92V-4.83H6.735c-.21,0-.435.015-.69.015-.27.015-.51.03-.705.045V-6.51a5.549,5.549,0,0,0,.735.03c.27.015.51.015.735.015H9.48c-.015.255-.015.54-.015.855s-.015.6-.015.84V-.66A9.887,9.887,0,0,1,8.1-.33a9.792,9.792,0,0,1-2.01.18A5.967,5.967,0,0,1,3.915-.525,4.715,4.715,0,0,1,2.19-1.59,4.574,4.574,0,0,1,1.05-3.27a5.821,5.821,0,0,1-.4-2.235,5.773,5.773,0,0,1,.4-2.2A4.98,4.98,0,0,1,2.19-9.39a5.152,5.152,0,0,1,1.725-1.065A6.3,6.3,0,0,1,6.09-10.83a10.555,10.555,0,0,1,1.545.12,12.371,12.371,0,0,1,1.65.465Zm8.25,5.4h-3.84c-.15.4-.285.825-.435,1.26-.165.45-.315.87-.45,1.245H10.605l3.75-10.35h2.22l3.75,10.35H18.27ZM16.83-4.425c-.24-.66-.465-1.305-.675-1.95-.24-.63-.465-1.275-.69-1.935l-1.38,3.885Zm9.42,2.46c.21,0,.45,0,.735-.015a5.524,5.524,0,0,0,.735-.045v1.77c-.21-.015-.435-.03-.69-.045-.27,0-.51-.015-.7-.015h-4.95c.015-.225.03-.495.045-.825,0-.315.015-.6.015-.855v-6.99c0-.24-.015-.51-.015-.825q-.022-.45-.045-.855h2.04a7.589,7.589,0,0,0-.03.855c-.015.33-.015.6-.015.825v7.02Zm7.425,0c.21,0,.45,0,.735-.015a5.524,5.524,0,0,0,.735-.045v1.77c-.21-.015-.435-.03-.69-.045s-.51-.015-.7-.015H28.8c.015-.225.03-.495.045-.825,0-.315.015-.6.015-.855v-6.99c0-.24-.015-.51-.015-.825q-.022-.45-.045-.855h2.04a7.589,7.589,0,0,0-.03.855c-.015.33-.015.6-.015.825v7.02Zm4.545,0h3.1c.2,0,.435,0,.72-.015a5.365,5.365,0,0,0,.735-.045v1.77c-.21-.015-.435-.03-.69-.045-.27,0-.51-.015-.705-.015H36.24c.015-.27.03-.555.045-.84v-7.83c0-.24-.015-.51-.015-.84-.015-.3-.03-.585-.045-.84h5.1c.2,0,.42,0,.69-.015a5.389,5.389,0,0,0,.705-.045v1.77a2.929,2.929,0,0,1-.345-.03A3.263,3.263,0,0,1,41.985-9a3.139,3.139,0,0,1-.39-.015H38.22V-6.5h2.745c.195,0,.42,0,.69-.015a5.389,5.389,0,0,0,.705-.045v1.77c-.21-.015-.435-.03-.69-.045-.27,0-.51-.015-.7-.015H38.22ZM44.5-8.985c0-.24-.015-.51-.015-.84-.015-.3-.03-.585-.045-.84h3.03a13.216,13.216,0,0,1,1.56.09,4.486,4.486,0,0,1,1.335.405,2.59,2.59,0,0,1,.93.87,2.939,2.939,0,0,1,.345,1.485,2.585,2.585,0,0,1-.135.87,2.421,2.421,0,0,1-.39.675,2.286,2.286,0,0,1-.57.51,3.3,3.3,0,0,1-.69.345,2.372,2.372,0,0,1,.705.81L52.5-.315H50.31L48.765-3.9v.015a3.921,3.921,0,0,0-.3-.48,2.187,2.187,0,0,0-.33-.255,3.258,3.258,0,0,0-.36-.105c-.15,0-.3-.015-.45-.015H46.44V-2c0,.255,0,.54.015.855a6.669,6.669,0,0,0,.03.825h-2.04c.015-.225.03-.495.045-.825,0-.315.015-.6.015-.855Zm1.935,2.6h1.32a2.52,2.52,0,0,0,1.38-.36,1.169,1.169,0,0,0,.54-1.065,1.1,1.1,0,0,0-.435-.915,2.361,2.361,0,0,0-1.35-.315H46.44ZM56.2-.315c.03-.42.045-.75.06-.99V-4.65L52.44-10.665h2.235l2.6,4.185,2.55-4.185h2.235l-3.81,6V-2c0,.24,0,.465.015.69s.015.57.045.99Z" transform="translate(929 1029)" fill="#0d0d0d"/>
    <line id="선_1" data-name="선 1" x2="35" transform="translate(942.5 1038.5)" fill="none" stroke="#090909" stroke-width="3"/>
  </g>
</svg>
