<svg xmlns="http://www.w3.org/2000/svg" width="269.21" height="9.27" viewBox="0 0 269.21 9.27">
  <path id="FOOTER" d="M5.36-6.32a3.565,3.565,0,0,0-.62-.23,3.066,3.066,0,0,0-.67-.08,2.771,2.771,0,0,0-.6.06,3.461,3.461,0,0,0-.54.16,2.837,2.837,0,0,0-.49.27,2.656,2.656,0,0,0-.4.34,2.211,2.211,0,0,0-.34.43,2.338,2.338,0,0,0-.25.5,2.192,2.192,0,0,0-.16.57,3.14,3.14,0,0,0-.05.61,2.8,2.8,0,0,0,.05.6,1.932,1.932,0,0,0,.14.55,2.343,2.343,0,0,0,.23.51,2.006,2.006,0,0,0,.32.43,2,2,0,0,0,.4.37,1.929,1.929,0,0,0,.49.27,1.863,1.863,0,0,0,.55.17,3.267,3.267,0,0,0,.65.06,2.114,2.114,0,0,0,.35-.02A1.806,1.806,0,0,0,4.8-.8a2.325,2.325,0,0,0,.36-.08,1.266,1.266,0,0,0,.32-.13l.04.66a1.511,1.511,0,0,1-.38.12,1.426,1.426,0,0,1-.39.06,2.769,2.769,0,0,1-.39.03c-.13.01-.24.01-.34.01a4.349,4.349,0,0,1-.74-.06,2.669,2.669,0,0,1-.66-.19,2.8,2.8,0,0,1-.6-.3,2.472,2.472,0,0,1-.49-.42,1.878,1.878,0,0,1-.41-.51,2.885,2.885,0,0,1-.3-.61,3.135,3.135,0,0,1-.19-.7,4.628,4.628,0,0,1-.06-.77,4.373,4.373,0,0,1,.06-.72,4.008,4.008,0,0,1,.18-.68,3.232,3.232,0,0,1,.28-.6,2.777,2.777,0,0,1,.4-.52,3.282,3.282,0,0,1,.48-.42,4.251,4.251,0,0,1,.6-.33,3.906,3.906,0,0,1,.68-.2,4.588,4.588,0,0,1,.77-.07c.12,0,.25.01.37.01.12.02.23.03.35.04.1.02.21.05.33.08s.23.08.35.12ZM6.57-2.75a2.886,2.886,0,0,1,.04-.5,2.142,2.142,0,0,1,.13-.48,2.482,2.482,0,0,1,.2-.44,1.8,1.8,0,0,1,.29-.39,2.075,2.075,0,0,1,.34-.32,2.741,2.741,0,0,1,.42-.25,2.875,2.875,0,0,1,.47-.16A2.92,2.92,0,0,1,9-5.34a2.957,2.957,0,0,1,.52.05,4.344,4.344,0,0,1,.48.14c.14.07.27.15.4.23l.36.3c.1.12.19.25.28.38a3.548,3.548,0,0,1,.21.44c.05.16.09.33.13.5a5.086,5.086,0,0,1,.04.55,3.884,3.884,0,0,1-.04.48c-.04.16-.08.32-.13.47a2.562,2.562,0,0,1-.21.44,2.7,2.7,0,0,1-.27.39,3.748,3.748,0,0,1-.36.34,1.9,1.9,0,0,1-.4.25,1.842,1.842,0,0,1-.48.17A2.393,2.393,0,0,1,9-.15,2.22,2.22,0,0,1,8.47-.2a1.188,1.188,0,0,1-.46-.15,1.417,1.417,0,0,1-.42-.23A1.535,1.535,0,0,1,7.24-.9a1.533,1.533,0,0,1-.29-.38,2.281,2.281,0,0,1-.2-.45,1.855,1.855,0,0,1-.13-.49A2.22,2.22,0,0,1,6.57-2.75Zm.67,0a2.376,2.376,0,0,0,.03.39,1.525,1.525,0,0,0,.08.37,1.173,1.173,0,0,0,.13.36,1.324,1.324,0,0,0,.2.32,1.015,1.015,0,0,0,.24.27,1.142,1.142,0,0,0,.3.21.961.961,0,0,0,.36.13A1.345,1.345,0,0,0,9-.65,1.331,1.331,0,0,0,9.4-.7a1.245,1.245,0,0,0,.35-.13,1.739,1.739,0,0,0,.3-.2,3.321,3.321,0,0,0,.25-.27,2.806,2.806,0,0,0,.19-.31,1.5,1.5,0,0,0,.15-.36,3.613,3.613,0,0,0,.08-.38,2.5,2.5,0,0,0,.03-.4,2.4,2.4,0,0,0-.03-.37c-.02-.12-.05-.24-.08-.38-.04-.12-.09-.23-.14-.35s-.13-.22-.19-.32a3.321,3.321,0,0,0-.25-.27c-.1-.08-.2-.15-.3-.22A2.671,2.671,0,0,0,9.4-4.8,1.752,1.752,0,0,0,9-4.85a2.337,2.337,0,0,0-.39.04,1.509,1.509,0,0,0-.34.14,1.405,1.405,0,0,0-.31.21,1.523,1.523,0,0,0-.25.26,1.55,1.55,0,0,0-.2.32,2.749,2.749,0,0,0-.15.36,3.558,3.558,0,0,0-.09.39A2.531,2.531,0,0,0,7.24-2.75ZM13.5-5.24a.375.375,0,0,0-.01.1v.11a.615.615,0,0,0-.01.13v.6a1.456,1.456,0,0,1,.09-.16,1.5,1.5,0,0,1,.14-.18.908.908,0,0,1,.17-.17c.06-.05.14-.11.22-.17.08-.04.16-.09.26-.14a2.228,2.228,0,0,1,.3-.13A2.444,2.444,0,0,1,15-5.33a2.376,2.376,0,0,1,.39-.03,3.072,3.072,0,0,1,.53.05,2.98,2.98,0,0,1,.45.16c.12.08.24.17.36.26.1.1.2.2.3.31a3.607,3.607,0,0,1,.22.39,3.664,3.664,0,0,1,.15.43,4.048,4.048,0,0,1,.09.48,4.321,4.321,0,0,1,.03.5,3.283,3.283,0,0,1-.04.46c-.03.16-.06.3-.1.44a4.4,4.4,0,0,1-.18.42,2.356,2.356,0,0,1-.23.35,2.23,2.23,0,0,1-.3.31,1.809,1.809,0,0,1-.36.23,1.183,1.183,0,0,1-.42.15,1.88,1.88,0,0,1-.47.05,2.422,2.422,0,0,1-.39-.02,1.14,1.14,0,0,1-.33-.08,1.054,1.054,0,0,1-.3-.1.874.874,0,0,1-.25-.15.888.888,0,0,1-.22-.16.581.581,0,0,1-.17-.18.9.9,0,0,1-.15-.19.524.524,0,0,1-.11-.19V.33c0,.15,0,.3.01.46a3.389,3.389,0,0,0,.02.45h-.68a1.7,1.7,0,0,1,.01-.23c0-.08.01-.16.01-.24V-4.88a.881.881,0,0,1-.02-.17,1.148,1.148,0,0,1-.01-.19Zm3.35,2.39c0-.12-.01-.25-.02-.38s-.05-.25-.07-.38c-.04-.12-.08-.23-.12-.34s-.1-.2-.16-.3c-.08-.08-.15-.16-.23-.24a1.89,1.89,0,0,0-.27-.2,3.422,3.422,0,0,0-.34-.13,2.581,2.581,0,0,0-.4-.04,2.5,2.5,0,0,0-.42.04,1.418,1.418,0,0,0-.35.14,1.142,1.142,0,0,0-.3.21,1.388,1.388,0,0,0-.24.25,1.726,1.726,0,0,0-.19.31,1.1,1.1,0,0,0-.12.33,1.553,1.553,0,0,0-.08.36,2.115,2.115,0,0,0-.02.35,2.376,2.376,0,0,0,.03.39,1.525,1.525,0,0,0,.08.37,1.262,1.262,0,0,0,.13.34,1,1,0,0,0,.2.29.848.848,0,0,0,.24.26.753.753,0,0,0,.3.18.927.927,0,0,0,.34.13,1.7,1.7,0,0,0,.4.04,1.581,1.581,0,0,0,.38-.04,1.063,1.063,0,0,0,.34-.12.8.8,0,0,0,.27-.18,1.893,1.893,0,0,0,.23-.25,2.477,2.477,0,0,0,.17-.29c.04-.1.09-.22.13-.34.02-.12.05-.24.07-.37S16.85-2.71,16.85-2.85Zm2.2,4.09h-.14c-.05,0-.09-.01-.13-.01s-.09-.01-.13-.01-.09-.02-.13-.03a.127.127,0,0,1,.01-.06V1.07a.127.127,0,0,1,.01-.06.148.148,0,0,1,.01-.07.487.487,0,0,1,.01-.12.3.3,0,0,1,.02-.13,1.163,1.163,0,0,0,.18.04c.06,0,.12.01.2.01a1.526,1.526,0,0,0,.3-.03,1.166,1.166,0,0,0,.26-.1c.07-.04.14-.09.21-.14l.18-.18c.04-.06.09-.13.13-.19s.07-.14.11-.22a.689.689,0,0,1,.04-.1c.01-.03.02-.06.03-.1a.69.69,0,0,1,.04-.1.23.23,0,0,1,.03-.09l-1.9-4.73h.66l1.5,3.9c0,.02,0,.03.01.04s0,.03.01.04a.052.052,0,0,0,.02.04c0,.02,0,.03.01.03a.172.172,0,0,0,.01.08c0,.02,0,.04.02.05a.031.031,0,0,1,.01-.02v-.03a.124.124,0,0,0,.02-.03.109.109,0,0,1,.01-.05.2.2,0,0,1,.01-.07.134.134,0,0,1,.02-.08l1.44-3.9h.66L20.98-.64c-.06.12-.11.24-.15.34-.06.12-.11.23-.16.33-.06.12-.13.23-.19.33s-.14.19-.21.28-.17.17-.25.25a1.665,1.665,0,0,1-.28.18,1.266,1.266,0,0,1-.32.13A2.325,2.325,0,0,1,19.05,1.24Zm7.14-6.02a2,2,0,0,0-.37.04q-.18.06-.33.12a1.27,1.27,0,0,0-.29.21,1.015,1.015,0,0,0-.24.27,1.683,1.683,0,0,0-.2.34,2.74,2.74,0,0,0-.15.4,3.4,3.4,0,0,0-.09.46,4.07,4.07,0,0,0-.03.5V-.85a1.148,1.148,0,0,0,.01.19v.2a1.148,1.148,0,0,0,.01.19h-.67a.487.487,0,0,1,.01-.12c0-.04.01-.08.01-.12V-4.92a.222.222,0,0,1-.01-.09v-.1a.375.375,0,0,1-.01-.11h.66a.487.487,0,0,0-.01.12V-5a.487.487,0,0,0-.01.12v.72a1.663,1.663,0,0,1,.25-.45,2.2,2.2,0,0,1,.37-.38,1.535,1.535,0,0,1,.47-.26,1.7,1.7,0,0,1,.57-.09c.08,0,.15.01.23.01a1.21,1.21,0,0,0,.19.01.334.334,0,0,0,.15.03.334.334,0,0,0,.15.03.2.2,0,0,0-.01.07.309.309,0,0,0-.02.08.127.127,0,0,0-.01.06.2.2,0,0,0-.01.07.494.494,0,0,0-.03.15.442.442,0,0,0-.02.15.647.647,0,0,1-.13-.04.5.5,0,0,1-.13-.04.808.808,0,0,1-.16-.01C26.28-4.77,26.23-4.78,26.19-4.78Zm2.62-1.74h-.79v-.87h.79Zm-.06,5.36v.69a.784.784,0,0,0,.02.22h-.71a.375.375,0,0,1,.01-.1.375.375,0,0,1,.01-.1v-4.4a.308.308,0,0,1-.01-.1v-.12a.487.487,0,0,1-.01-.12h.71a1.188,1.188,0,0,0-.02.25v3.78Zm6.19.3a2.839,2.839,0,0,1-.16.96,1.82,1.82,0,0,1-.46.68,2.192,2.192,0,0,1-.8.43,4.808,4.808,0,0,1-1.13.13c-.14,0-.27-.01-.39-.01s-.26-.02-.38-.04a3.728,3.728,0,0,1-.44-.08,3.579,3.579,0,0,1-.49-.17A.127.127,0,0,1,30.7.98V.9a.185.185,0,0,1,.02-.07.2.2,0,0,1,.01-.08.57.57,0,0,1,.01-.13.4.4,0,0,1,.03-.15,3.383,3.383,0,0,0,.44.18,3.059,3.059,0,0,0,.41.1,3.652,3.652,0,0,0,.4.07c.14.01.3.02.48.02a2.465,2.465,0,0,0,.75-.11,1.639,1.639,0,0,0,.58-.35,1.424,1.424,0,0,0,.36-.56,2.284,2.284,0,0,0,.12-.78V-1.7l-.12.18c-.04.06-.09.12-.13.18-.06.06-.12.12-.18.17a2.078,2.078,0,0,1-.2.15,1.492,1.492,0,0,1-.24.14,1.426,1.426,0,0,1-.27.09,1.156,1.156,0,0,1-.31.07,2.055,2.055,0,0,1-.35.02A2.1,2.1,0,0,1,32-.75a1.5,1.5,0,0,1-.44-.13,1.524,1.524,0,0,1-.38-.2,1.194,1.194,0,0,1-.31-.28,1.644,1.644,0,0,1-.26-.33,1.359,1.359,0,0,1-.17-.39,1.3,1.3,0,0,1-.11-.41,2.252,2.252,0,0,1-.04-.46,4.028,4.028,0,0,1,.03-.49,2.044,2.044,0,0,1,.11-.46,1.783,1.783,0,0,1,.17-.41,1.952,1.952,0,0,1,.25-.36,1.7,1.7,0,0,1,.31-.28,3.642,3.642,0,0,1,.39-.23,2.526,2.526,0,0,1,.44-.14,4.074,4.074,0,0,1,.52-.04,2.588,2.588,0,0,1,.63.08,2.3,2.3,0,0,1,.53.23,4.4,4.4,0,0,1,.39.35,3.4,3.4,0,0,1,.28.42v-.47a1.642,1.642,0,0,1-.02-.23,2.093,2.093,0,0,1-.01-.26h.66a1.188,1.188,0,0,0-.02.25v.22a1.849,1.849,0,0,0-.01.23V-.86ZM30.96-3a2.3,2.3,0,0,0,.02.38,1.209,1.209,0,0,0,.08.34.774.774,0,0,0,.12.31.966.966,0,0,0,.19.26.883.883,0,0,0,.22.21.857.857,0,0,0,.3.16.908.908,0,0,0,.34.11,2.376,2.376,0,0,0,.39.03A2.34,2.34,0,0,0,33-1.23a1.182,1.182,0,0,0,.35-.11,1.124,1.124,0,0,0,.28-.16,2.253,2.253,0,0,0,.24-.21,2.927,2.927,0,0,0,.18-.26,1.8,1.8,0,0,0,.14-.31c.02-.1.05-.22.07-.34A2.253,2.253,0,0,0,34.29-3a2.186,2.186,0,0,0-.03-.36c-.02-.11-.05-.23-.07-.35-.04-.1-.09-.21-.14-.31s-.12-.18-.18-.28c-.08-.08-.16-.15-.24-.22s-.18-.13-.28-.19c-.12-.04-.23-.08-.35-.11a2.328,2.328,0,0,0-.38-.04,2.371,2.371,0,0,0-.41.04,2.267,2.267,0,0,0-.34.11,1.976,1.976,0,0,0-.3.18,1.145,1.145,0,0,0-.22.22,1.307,1.307,0,0,0-.18.28,1.28,1.28,0,0,0-.11.31,1.553,1.553,0,0,0-.08.36A2.174,2.174,0,0,0,30.96-3Zm6.33-1.22a1.544,1.544,0,0,1,.27-.46,1.762,1.762,0,0,1,.41-.35,2.812,2.812,0,0,1,.52-.21,2.84,2.84,0,0,1,.61-.07,2.383,2.383,0,0,1,.84.14,1.61,1.61,0,0,1,.58.41,2.192,2.192,0,0,1,.32.67,3.417,3.417,0,0,1,.11.88V-.43a.585.585,0,0,0,.02.19h-.68a2.09,2.09,0,0,1,.01-.25,1.785,1.785,0,0,1,.02-.23V-2.81a5.678,5.678,0,0,0-.07-.87,2.565,2.565,0,0,0-.2-.61,1.292,1.292,0,0,0-.4-.37,1.756,1.756,0,0,0-.61-.16,2.477,2.477,0,0,0-.41.04,2.342,2.342,0,0,0-.35.13,1.405,1.405,0,0,0-.31.21,1.234,1.234,0,0,0-.24.28,1.682,1.682,0,0,0-.2.34,1.626,1.626,0,0,0-.13.39,2.135,2.135,0,0,0-.08.44,3.708,3.708,0,0,0-.03.47V-.43a.584.584,0,0,0,.02.19h-.68a2.09,2.09,0,0,1,.01-.25,1.785,1.785,0,0,1,.02-.23V-6.91c0-.12-.01-.24-.01-.36s-.02-.24-.02-.38h.68a1.057,1.057,0,0,0-.02.24v3.19Zm5.96-1.73c0-.12-.01-.25-.01-.39s-.02-.26-.02-.4h.68a.39.39,0,0,0-.02.14v1.4h1.25a.442.442,0,0,0,.15-.02v.53a.127.127,0,0,1-.06-.01h-.05c-.02,0-.03,0-.04-.01H43.88v3.03a1.324,1.324,0,0,0,.02.3.49.49,0,0,0,.05.23.474.474,0,0,0,.08.19.274.274,0,0,0,.13.13.4.4,0,0,0,.15.1.356.356,0,0,0,.19.05.665.665,0,0,0,.21.03,2.092,2.092,0,0,0,.26.01.344.344,0,0,0,.09-.01.217.217,0,0,0,.1-.02.183.183,0,0,0,.09-.02.308.308,0,0,0,.09-.04v.5c-.06.02-.11.04-.15.05a.442.442,0,0,1-.15.02.524.524,0,0,1-.17.02,1.087,1.087,0,0,1-.18.01,1.842,1.842,0,0,1-.61-.08.9.9,0,0,1-.45-.24.774.774,0,0,1-.29-.41,1.887,1.887,0,0,1-.09-.62V-4.71h-.93a.487.487,0,0,1-.12.01.615.615,0,0,1-.13.01v-.53a.15.15,0,0,0,.1.02h1.08ZM48.17.97c-.12-.16-.22-.33-.32-.49a3.809,3.809,0,0,1-.29-.52,4.249,4.249,0,0,1-.27-.52,3.463,3.463,0,0,1-.23-.56,3.376,3.376,0,0,1-.2-.56,5.634,5.634,0,0,1-.14-.59,3.826,3.826,0,0,1-.1-.59,6.133,6.133,0,0,1-.03-.62,5.828,5.828,0,0,1,.03-.59c.02-.19.05-.39.09-.59.04-.18.08-.37.14-.57a5.605,5.605,0,0,1,.2-.57,4.165,4.165,0,0,1,.23-.54q.12-.27.27-.54c.09-.17.19-.34.3-.52s.2-.35.32-.53h.53c-.1.18-.2.35-.28.51-.1.18-.18.35-.26.52a4.339,4.339,0,0,0-.25.54q-.12.27-.21.54a5.433,5.433,0,0,0-.19.57c-.06.2-.1.39-.14.57a4.173,4.173,0,0,0-.1.6q-.03.3-.03.6a5.353,5.353,0,0,0,.03.58,4.854,4.854,0,0,0,.09.57,3.387,3.387,0,0,0,.13.57,2.722,2.722,0,0,0,.18.55,4.635,4.635,0,0,0,.21.56c.08.18.16.36.26.54q.12.27.27.54c.09.18.19.36.29.54Zm5.16-5.65c-.08-.02-.16-.05-.23-.07s-.16-.04-.23-.06a.986.986,0,0,1-.24-.03c-.08,0-.16-.01-.24-.01a2.737,2.737,0,0,0-.43.04c-.14.04-.26.08-.38.12a2.006,2.006,0,0,0-.36.2,2.468,2.468,0,0,0-.29.24,1.622,1.622,0,0,0-.24.31,1.456,1.456,0,0,0-.18.35,1.561,1.561,0,0,0-.11.41,2.087,2.087,0,0,0-.04.43,2.153,2.153,0,0,0,.04.45,1.254,1.254,0,0,0,.11.39,1.14,1.14,0,0,0,.17.37.886.886,0,0,0,.24.3.913.913,0,0,0,.3.25,1.015,1.015,0,0,0,.36.18,1.246,1.246,0,0,0,.4.12,2.154,2.154,0,0,0,.45.04,2.015,2.015,0,0,0,.23-.01,1.471,1.471,0,0,0,.27-.04,1.378,1.378,0,0,0,.26-.06,1.223,1.223,0,0,0,.24-.1l.09.52a1.449,1.449,0,0,1-.31.11,1.177,1.177,0,0,1-.31.05,1.778,1.778,0,0,1-.31.02,2.44,2.44,0,0,1-.26.01,2.1,2.1,0,0,1-.51-.05,1.565,1.565,0,0,1-.48-.14,2.347,2.347,0,0,1-.45-.22,1.846,1.846,0,0,1-.39-.3,1.721,1.721,0,0,1-.34-.37,1.986,1.986,0,0,1-.25-.45,1.8,1.8,0,0,1-.17-.51,2.484,2.484,0,0,1-.05-.56,2.559,2.559,0,0,1,.05-.55,1.777,1.777,0,0,1,.14-.5,2.057,2.057,0,0,1,.23-.44,2.154,2.154,0,0,1,.31-.38,3,3,0,0,1,.37-.3,3.943,3.943,0,0,1,.46-.23,3.8,3.8,0,0,1,.51-.14,3.454,3.454,0,0,1,.57-.05h.15a.59.59,0,0,0,.14.02c.04,0,.09.01.15.01a.662.662,0,0,0,.15.01c.09.02.18.04.26.06l.23.06ZM54.29.97c.1-.18.19-.36.29-.54s.18-.36.28-.54l.24-.54c.07-.18.14-.36.22-.56.06-.18.12-.36.18-.55s.1-.37.14-.57c.03-.18.06-.37.08-.57a5.353,5.353,0,0,0,.03-.58q0-.3-.03-.6t-.09-.6q-.075-.27-.15-.57-.09-.27-.18-.57c-.08-.18-.15-.36-.23-.54l-.24-.54a5.121,5.121,0,0,1-.27-.52,4.11,4.11,0,0,1-.27-.51h.53c.1.18.21.36.32.53s.2.35.3.52l.27.54.24.54c.06.2.13.39.19.57.05.2.1.39.14.57.04.2.07.4.09.59a5.828,5.828,0,0,1,.03.59,6.133,6.133,0,0,1-.03.62,5.583,5.583,0,0,1-.09.59c-.05.2-.1.4-.15.59s-.13.38-.19.56c-.08.2-.16.38-.24.56l-.26.52c-.1.18-.2.35-.3.52s-.22.33-.32.49Zm5.13-1.99c.04-.03.08-.07.13-.11a.983.983,0,0,1,.15-.12.435.435,0,0,1,.07-.06.435.435,0,0,1,.07-.06c.02-.02.05-.04.08-.07a.968.968,0,0,1,.09-.07,2.217,2.217,0,0,0,.22-.18c.08-.06.18-.14.28-.23s.19-.16.3-.26.2-.19.32-.3l.31-.31c.1-.1.21-.22.33-.34.1-.11.2-.23.3-.35s.18-.24.28-.38c.08-.12.15-.24.23-.38.06-.12.13-.25.19-.39.04-.12.08-.24.12-.37a2.337,2.337,0,0,0,.04-.39,1.222,1.222,0,0,0-.03-.26,1.254,1.254,0,0,0-.09-.25c-.05-.07-.1-.14-.16-.22l-.19-.19-.24-.15-.27-.12c-.1-.02-.21-.05-.31-.07s-.22-.02-.32-.02c-.08,0-.16.01-.23.01a1.8,1.8,0,0,1-.22.02,2.231,2.231,0,0,1-.23.04c-.08.02-.16.03-.22.04a.261.261,0,0,1-.11.03.759.759,0,0,1-.11.04.23.23,0,0,1-.09.03.23.23,0,0,1-.09.03l-.16.08a1.308,1.308,0,0,0-.13.07l-.07-.59c.14-.06.28-.11.43-.16s.3-.07.46-.11q.21-.03.45-.06c.15-.01.3-.02.46-.02a3.108,3.108,0,0,1,.43.03,3.148,3.148,0,0,1,.42.09,2.749,2.749,0,0,1,.36.15,3.447,3.447,0,0,1,.32.2,2.226,2.226,0,0,1,.26.27,3.447,3.447,0,0,1,.2.32q.06.18.12.39a3.128,3.128,0,0,1,.04.44,2.255,2.255,0,0,1-.08.58,3.183,3.183,0,0,1-.23.58c-.12.2-.24.4-.37.6a6.407,6.407,0,0,1-.45.58c-.18.2-.36.4-.54.58-.2.2-.39.38-.59.56q-.33.285-.63.54c-.21.18-.41.34-.61.5H63.6a.234.234,0,0,0,.11-.02v.6a.127.127,0,0,1-.06-.01h-.06c-.02,0-.03,0-.04-.01H59.42Zm5.24-2.66c0-.12,0-.24.01-.38a3.006,3.006,0,0,1,.04-.4,1.9,1.9,0,0,1,.05-.39,3.48,3.48,0,0,1,.1-.41,2.14,2.14,0,0,1,.13-.38,2.953,2.953,0,0,1,.16-.37,1.633,1.633,0,0,1,.19-.34,2.152,2.152,0,0,1,.25-.29,2.321,2.321,0,0,1,.28-.24c.1-.06.22-.13.34-.19q.18-.06.39-.12a2.872,2.872,0,0,1,.44-.04,2.181,2.181,0,0,1,.63.09,2.346,2.346,0,0,1,.53.25,5.138,5.138,0,0,1,.41.4,4.867,4.867,0,0,1,.32.47c.08.18.16.37.23.56s.11.39.15.59c.02.22.05.42.07.62s.03.39.03.57a5.829,5.829,0,0,1-.03.59c-.02.2-.05.41-.08.61a4.948,4.948,0,0,1-.15.61,4.614,4.614,0,0,1-.23.54,2.863,2.863,0,0,1-.32.48,2.036,2.036,0,0,1-.4.38,1.542,1.542,0,0,1-.53.26,2.178,2.178,0,0,1-.63.08,2.185,2.185,0,0,1-.65-.08,1.235,1.235,0,0,1-.51-.26,1.685,1.685,0,0,1-.42-.38,2.041,2.041,0,0,1-.31-.49,2.2,2.2,0,0,1-.23-.54,2.866,2.866,0,0,1-.15-.61,4.113,4.113,0,0,1-.08-.6A5.829,5.829,0,0,1,64.66-3.68Zm.67,0v.23a1.368,1.368,0,0,0,.02.28,1.655,1.655,0,0,0,.03.32,1.647,1.647,0,0,0,.06.32,1.594,1.594,0,0,0,.08.33,1.592,1.592,0,0,0,.1.33,1.548,1.548,0,0,0,.14.32.948.948,0,0,0,.17.27.826.826,0,0,0,.21.24.642.642,0,0,0,.25.18.7.7,0,0,0,.29.13,1.277,1.277,0,0,0,.36.04,1.267,1.267,0,0,0,.34-.04.943.943,0,0,0,.3-.12.977.977,0,0,0,.25-.18,1.286,1.286,0,0,0,.21-.24,3.181,3.181,0,0,0,.17-.27,2.369,2.369,0,0,0,.14-.32c.03-.1.06-.21.1-.33.02-.1.05-.21.08-.33.02-.1.03-.21.05-.32s.02-.21.04-.32a.708.708,0,0,1,.01-.14v-.13a.57.57,0,0,1,.01-.13v-.12c0-.06-.01-.14-.01-.24a2.328,2.328,0,0,1-.02-.29.605.605,0,0,1-.02-.15c-.01-.05-.02-.1-.03-.16a.88.88,0,0,1-.02-.17.467.467,0,0,1-.03-.17,2.663,2.663,0,0,1-.08-.33c-.04-.1-.07-.21-.11-.33-.04-.1-.09-.2-.14-.3s-.11-.18-.17-.28c-.07-.08-.14-.15-.21-.22s-.16-.13-.24-.19c-.1-.04-.19-.08-.29-.12a1.859,1.859,0,0,0-.33-.04,1.656,1.656,0,0,0-.33.04,2.609,2.609,0,0,0-.28.12,1.808,1.808,0,0,0-.25.19,1.447,1.447,0,0,0-.21.22,1.747,1.747,0,0,0-.17.28,2.019,2.019,0,0,0-.14.3,3.427,3.427,0,0,0-.12.33,2.137,2.137,0,0,0-.08.32,2.447,2.447,0,0,0-.06.34,1.757,1.757,0,0,0-.04.31,1.568,1.568,0,0,0-.02.29A2.355,2.355,0,0,0,65.33-3.68Zm5.04,2.66c.04-.03.08-.07.13-.11a.983.983,0,0,1,.15-.12.435.435,0,0,1,.07-.06.435.435,0,0,1,.07-.06c.02-.02.05-.04.08-.07a.968.968,0,0,1,.09-.07,2.218,2.218,0,0,0,.22-.18c.08-.06.18-.14.28-.23s.19-.16.3-.26.2-.19.32-.3l.31-.31c.1-.1.21-.22.33-.34.1-.11.2-.23.3-.35s.18-.24.28-.38c.08-.12.15-.24.23-.38.06-.12.13-.25.19-.39.04-.12.08-.24.12-.37a2.337,2.337,0,0,0,.04-.39,1.221,1.221,0,0,0-.03-.26,1.253,1.253,0,0,0-.09-.25c-.05-.07-.1-.14-.16-.22l-.19-.19-.24-.15-.27-.12c-.1-.02-.21-.05-.31-.07s-.22-.02-.32-.02c-.08,0-.16.01-.23.01a1.8,1.8,0,0,1-.22.02,2.231,2.231,0,0,1-.23.04c-.08.02-.16.03-.22.04a.261.261,0,0,1-.11.03.76.76,0,0,1-.11.04.23.23,0,0,1-.09.03.23.23,0,0,1-.09.03l-.16.08a1.309,1.309,0,0,0-.13.07l-.07-.59c.14-.06.28-.11.43-.16s.3-.07.46-.11q.21-.03.45-.06c.15-.01.3-.02.46-.02a3.108,3.108,0,0,1,.43.03,3.148,3.148,0,0,1,.42.09,2.749,2.749,0,0,1,.36.15,3.449,3.449,0,0,1,.32.2,2.225,2.225,0,0,1,.26.27,3.448,3.448,0,0,1,.2.32q.06.18.12.39a3.127,3.127,0,0,1,.04.44,2.254,2.254,0,0,1-.08.58,3.183,3.183,0,0,1-.23.58c-.12.2-.24.4-.37.6a6.407,6.407,0,0,1-.45.58c-.18.2-.36.4-.54.58-.2.2-.39.38-.59.56q-.33.285-.63.54c-.21.18-.41.34-.61.5h3.49a.234.234,0,0,0,.11-.02v.6a.127.127,0,0,1-.06-.01h-.06c-.02,0-.03,0-.04-.01H70.37Zm7.36.77a1.7,1.7,0,0,1,.01-.22,1.952,1.952,0,0,1,.02-.23V-6.42L76.52-5.34l-.36-.47,1.63-1.3h.67a2.174,2.174,0,0,0-.02.36c-.01.12-.01.24-.01.34V-.43a.554.554,0,0,0,.02.18ZM83.8-6.04a.5.5,0,0,1-.05-.13.5.5,0,0,1-.05-.13.612.612,0,0,1-.05-.12.612.612,0,0,1-.05-.12L83.59-.91v.17a.759.759,0,0,0,.01.16v.17a.808.808,0,0,0,.01.16h-.7a2.091,2.091,0,0,1,.01-.25,1.785,1.785,0,0,1,.02-.23V-6.19c0-.14-.01-.28-.01-.44s-.02-.31-.02-.47h1.12l2.28,5.76a.358.358,0,0,0,.04.11.155.155,0,0,0,.02.08.172.172,0,0,0,.01.08A.084.084,0,0,0,86.4-1v-.02a.077.077,0,0,1,.01-.03.1.1,0,0,1,.01-.04.169.169,0,0,1,.02-.05.183.183,0,0,1,.02-.09.974.974,0,0,1,.05-.11L88.75-7.1h1.11a1.028,1.028,0,0,0-.01.17v.16a1.029,1.029,0,0,0-.01.17V-.74a.308.308,0,0,0,.01.1v.12a.279.279,0,0,0,.01.1v.17h-.7c0-.14.01-.29.02-.45s.01-.31.01-.47V-6.54h-.02L86.69-.25h-.57Zm8.62,4.87v.7a.785.785,0,0,0,.02.22h-.71a1.623,1.623,0,0,1,.01-.21c0-.07.01-.15.01-.23V-6.76a.308.308,0,0,1-.01-.1v-.12a.487.487,0,0,1-.01-.12h.71a.935.935,0,0,0-.02.23v5.7Zm5.05.32h.5a.617.617,0,0,0,.18-.02v.63a.222.222,0,0,1-.09-.01h-.07a.2.2,0,0,1-.08-.01h-.07a1.028,1.028,0,0,1-.17.01H94.35a.487.487,0,0,1,.01-.12c0-.04.01-.08.01-.12V-6.76a.308.308,0,0,1-.01-.1v-.12a.487.487,0,0,1-.01-.12h.7a1.188,1.188,0,0,0-.02.25v.22a1.7,1.7,0,0,0-.01.22V-.85Zm4.1-5.65V-.94a1.7,1.7,0,0,0,.01.23v.24a.75.75,0,0,0,.02.22h-.73V-.32a.109.109,0,0,1,.01-.05.127.127,0,0,1,.01-.06V-.54a.615.615,0,0,1,.01-.13V-6.5H98.89a.249.249,0,0,1-.08.01h-.07a.248.248,0,0,1-.08.01v-.64a.451.451,0,0,0,.13.01h.16a.864.864,0,0,0,.15.01h4.54a.617.617,0,0,0,.18-.02v.64a.57.57,0,0,1-.13-.01c-.06,0-.11-.01-.17-.01h-1.95Zm3.76,2.82a4.932,4.932,0,0,0,.03.55,3.08,3.08,0,0,0,.08.53,1.943,1.943,0,0,0,.15.5,1.674,1.674,0,0,0,.23.44,1.573,1.573,0,0,0,.3.38,1.329,1.329,0,0,0,.4.29,1.286,1.286,0,0,0,.48.2,2.771,2.771,0,0,0,.6.06,2.715,2.715,0,0,0,.58-.06,1.842,1.842,0,0,0,.49-.19,2.139,2.139,0,0,0,.39-.28,2.331,2.331,0,0,0,.31-.37,3.61,3.61,0,0,0,.23-.44,3.8,3.8,0,0,0,.16-.51c.03-.17.06-.35.08-.54a4.982,4.982,0,0,0,.03-.56,4.887,4.887,0,0,0-.03-.54c-.02-.17-.05-.35-.08-.53a4.162,4.162,0,0,0-.16-.5,4.708,4.708,0,0,0-.22-.45c-.1-.13-.2-.25-.31-.37q-.18-.15-.39-.3a2.72,2.72,0,0,0-.5-.19,2.709,2.709,0,0,0-.58-.07,2.522,2.522,0,0,0-.58.06,1.642,1.642,0,0,0-.47.18,1.769,1.769,0,0,0-.4.28,2.1,2.1,0,0,0-.31.37,2.057,2.057,0,0,0-.23.44,2.911,2.911,0,0,0-.16.5,5.248,5.248,0,0,0-.09.55Q105.33-3.95,105.33-3.68Zm-.67,0a4.872,4.872,0,0,1,.04-.66,3.936,3.936,0,0,1,.13-.65,2.907,2.907,0,0,1,.22-.6,3.73,3.73,0,0,1,.31-.54,2.818,2.818,0,0,1,.41-.44,2.554,2.554,0,0,1,.51-.36,2.672,2.672,0,0,1,.6-.23,4,4,0,0,1,.72-.07,3.713,3.713,0,0,1,.67.07,5.894,5.894,0,0,1,.59.21,4.323,4.323,0,0,1,.5.33,5.745,5.745,0,0,1,.42.43,5.735,5.735,0,0,1,.32.53c.09.2.17.4.25.6.06.22.1.45.14.67a5.649,5.649,0,0,1,.05.71c0,.22-.02.44-.04.66-.04.22-.08.44-.12.64a4.328,4.328,0,0,1-.22.61,2.733,2.733,0,0,1-.31.53,1.984,1.984,0,0,1-.41.45,2.815,2.815,0,0,1-.5.35,2.022,2.022,0,0,1-.62.23,2.74,2.74,0,0,1-.72.08,3.018,3.018,0,0,1-.7-.07,1.954,1.954,0,0,1-.6-.22,1.5,1.5,0,0,1-.51-.33,1.915,1.915,0,0,1-.41-.44,2.467,2.467,0,0,1-.31-.52,2.757,2.757,0,0,1-.23-.61,3.216,3.216,0,0,1-.13-.66A3.979,3.979,0,0,1,104.66-3.68ZM116.32-.23l-3.53-5.89c-.02-.02-.04-.04-.04-.06a.091.091,0,0,1-.03-.07.086.086,0,0,1-.03-.06c-.02-.01-.02-.03-.02-.05V-.48a.858.858,0,0,0,.02.23h-.7A1.926,1.926,0,0,1,112-.49a1.954,1.954,0,0,1,.02-.23V-6.19c0-.14-.01-.29-.01-.45s-.02-.31-.02-.47h.94l3.26,5.54a.361.361,0,0,0,.08.15.688.688,0,0,0,.11.13.8.8,0,0,0,.08.16c.02.06.05.11.07.16V-6.19c0-.14-.01-.29-.01-.45s-.02-.31-.02-.47h.7a.391.391,0,0,0-.02.14V-.35a.487.487,0,0,0,.01.12Zm9.44-5.99c-.12-.06-.25-.11-.38-.17s-.29-.1-.43-.14c-.16-.02-.32-.05-.48-.07a4.321,4.321,0,0,0-.5-.03,3.862,3.862,0,0,0-.61.05,3.966,3.966,0,0,0-.55.16,3.356,3.356,0,0,0-.5.26,2.357,2.357,0,0,0-.42.33,2.831,2.831,0,0,0-.36.43,1.985,1.985,0,0,0-.26.5,2.994,2.994,0,0,0-.18.58,3.207,3.207,0,0,0-.06.63,3.034,3.034,0,0,0,.06.62,2.121,2.121,0,0,0,.16.56,2.018,2.018,0,0,0,.25.51,1.832,1.832,0,0,0,.35.43,1.819,1.819,0,0,0,.42.36,1.753,1.753,0,0,0,.51.26,2.168,2.168,0,0,0,.58.17,3.406,3.406,0,0,0,.66.05c.08,0,.17,0,.28-.01a2.057,2.057,0,0,0,.34-.02,1.369,1.369,0,0,0,.34-.04,1.15,1.15,0,0,0,.32-.12V-3.5h-1.31a.249.249,0,0,1-.08.01h-.08a.344.344,0,0,1-.09.01V-4.1a.554.554,0,0,0,.18.02h2.05a1.188,1.188,0,0,0-.02.25V-.44a2.418,2.418,0,0,1-.35.11,2.971,2.971,0,0,1-.45.1,3.284,3.284,0,0,1-.56.08c-.21.02-.43.02-.67.02a4.557,4.557,0,0,1-.75-.06,2.965,2.965,0,0,1-.68-.19,2.885,2.885,0,0,1-.61-.3,2.275,2.275,0,0,1-.5-.42,2.12,2.12,0,0,1-.42-.51,2.5,2.5,0,0,1-.31-.61,2.523,2.523,0,0,1-.21-.69,3.223,3.223,0,0,1-.08-.78,3.672,3.672,0,0,1,.07-.75,2.785,2.785,0,0,1,.2-.68,3.362,3.362,0,0,1,.3-.6,2.839,2.839,0,0,1,.41-.52,2.35,2.35,0,0,1,.51-.41,4.361,4.361,0,0,1,.61-.32,4.321,4.321,0,0,1,.69-.19,4.588,4.588,0,0,1,.77-.07c.16,0,.33.01.49.02s.3.03.46.05c.14.04.29.07.45.11s.32.09.5.14Zm5.13,5.37h.5a.617.617,0,0,0,.18-.02v.63a.222.222,0,0,1-.09-.01h-.07a.2.2,0,0,1-.08-.01h-.07a1.028,1.028,0,0,1-.17.01h-3.32a.487.487,0,0,1,.01-.12c0-.04.01-.08.01-.12V-6.76a.308.308,0,0,1-.01-.1v-.12a.487.487,0,0,1-.01-.12h.7a1.188,1.188,0,0,0-.02.25v.22a1.693,1.693,0,0,0-.01.22V-.85Zm6.48.6c-.06-.15-.12-.3-.18-.46s-.12-.31-.17-.47c-.06-.14-.12-.3-.18-.46s-.12-.31-.17-.47h-3.22a1.173,1.173,0,0,0-.09.24,1.173,1.173,0,0,0-.09.24c-.03.08-.06.15-.08.22a1.356,1.356,0,0,0-.09.23c-.06.16-.12.32-.18.47s-.12.31-.17.46h-.69l2.61-6.87h.77c.24.68.48,1.32.72,1.93s.46,1.21.68,1.77q.315.87.63,1.65c.2.54.39,1.04.59,1.52Zm-3.72-2.41h2.81l-1.29-3.48a.578.578,0,0,1-.05-.14.254.254,0,0,1-.02-.12.169.169,0,0,1-.03-.1.375.375,0,0,1-.01-.11h-.01c0,.04-.01.07-.01.1a.425.425,0,0,0-.02.11.93.93,0,0,0-.04.13.927.927,0,0,0-.04.13Zm8.84-3.72c-.12-.04-.24-.07-.34-.11a2.806,2.806,0,0,1-.31-.08c-.1-.02-.21-.03-.32-.05-.12,0-.24-.01-.36-.01-.09,0-.18.01-.26.01-.1.02-.19.03-.28.04s-.2.05-.28.07a1.861,1.861,0,0,0-.25.1,1.529,1.529,0,0,0-.23.15.787.787,0,0,0-.18.19.75.75,0,0,0-.13.25.967.967,0,0,0-.04.29.9.9,0,0,0,.03.25.4.4,0,0,0,.11.2.749.749,0,0,0,.15.2.834.834,0,0,0,.21.16.785.785,0,0,0,.23.16,1.078,1.078,0,0,0,.26.14,1.3,1.3,0,0,0,.26.14c.08.04.17.08.26.12a.53.53,0,0,0,.15.08.53.53,0,0,0,.15.08.886.886,0,0,0,.17.08.886.886,0,0,0,.17.08c.1.06.21.13.31.19l.3.21c.08.08.17.17.25.26s.15.19.22.29a2.673,2.673,0,0,1,.14.36,2.714,2.714,0,0,1,.04.41,1.958,1.958,0,0,1-.06.5,1.948,1.948,0,0,1-.16.41,1.99,1.99,0,0,1-.26.35,2.079,2.079,0,0,1-.32.27,3.047,3.047,0,0,1-.4.21,2.147,2.147,0,0,1-.45.14,3.052,3.052,0,0,1-.5.08,4.708,4.708,0,0,1-.53.03,2,2,0,0,1-.35-.02,1.03,1.03,0,0,1-.35-.06,2.326,2.326,0,0,1-.36-.08,2.014,2.014,0,0,1-.35-.1l.1-.64a.527.527,0,0,0,.15.05.527.527,0,0,0,.15.05,1.162,1.162,0,0,0,.18.04,1.055,1.055,0,0,0,.19.05,1.507,1.507,0,0,0,.38.08,2.5,2.5,0,0,0,.4.03,1.668,1.668,0,0,0,.31-.02,1.318,1.318,0,0,0,.32-.05,1.767,1.767,0,0,0,.31-.08,1.348,1.348,0,0,0,.3-.14.977.977,0,0,0,.25-.18,1.14,1.14,0,0,0,.2-.23,1.047,1.047,0,0,0,.14-.28,1.688,1.688,0,0,0,.04-.35,1.445,1.445,0,0,0-.04-.29c-.04-.08-.08-.17-.12-.25a1.992,1.992,0,0,1-.19-.21,2.19,2.19,0,0,1-.23-.21c-.06-.04-.13-.08-.2-.13s-.17-.09-.25-.14a2.55,2.55,0,0,1-.29-.13,2.1,2.1,0,0,1-.3-.15,1.637,1.637,0,0,1-.33-.14,3.072,3.072,0,0,1-.31-.17,1.329,1.329,0,0,1-.31-.18,1.377,1.377,0,0,1-.26-.22.756.756,0,0,1-.24-.23.839.839,0,0,1-.18-.28.677.677,0,0,1-.12-.3,1.247,1.247,0,0,1-.04-.35,1.331,1.331,0,0,1,.05-.4,1.364,1.364,0,0,1,.13-.37,2.729,2.729,0,0,1,.21-.3,1.758,1.758,0,0,1,.28-.26c.1-.06.21-.13.33-.19a2.256,2.256,0,0,1,.39-.15,2.5,2.5,0,0,1,.43-.09,3.333,3.333,0,0,1,.46-.03c.1,0,.22.01.34.01.12.02.25.03.39.05.12.02.25.05.38.07s.25.06.37.08Zm2.5,5.53h3.1a.617.617,0,0,0,.18-.02v.64a.172.172,0,0,1-.08-.01h-.08a.148.148,0,0,1-.07-.01h-3.72a.414.414,0,0,1,.01-.1.487.487,0,0,1,.01-.12V-6.65a1.48,1.48,0,0,1-.01-.22,1.7,1.7,0,0,1-.01-.23h3.73a.524.524,0,0,0,.17-.02v.64a.308.308,0,0,1-.1-.01c-.04,0-.07-.01-.09-.01h-3.04v2.39h2.81a.524.524,0,0,0,.17-.02v.64a.222.222,0,0,1-.09-.01h-.08a.148.148,0,0,1-.07-.01h-2.74Zm4.79-5.51v-.46a.222.222,0,0,1-.01-.09V-7a.308.308,0,0,1-.01-.1h1.78c.16,0,.32.01.49.01.16.02.33.03.49.05a3.117,3.117,0,0,1,.44.09,2.74,2.74,0,0,1,.4.15,2.75,2.75,0,0,1,.33.23c.09.1.18.2.26.3a2.188,2.188,0,0,1,.16.41,2.1,2.1,0,0,1,.06.51,1.863,1.863,0,0,1-.03.36,1.5,1.5,0,0,1-.1.3,3.177,3.177,0,0,1-.17.27,1.435,1.435,0,0,1-.19.22,1.378,1.378,0,0,1-.25.19,1.465,1.465,0,0,1-.28.14,1.861,1.861,0,0,1-.31.1,1.051,1.051,0,0,1-.33.06q.18.09.33.15c.09.06.17.11.25.17.06.07.13.14.19.22s.1.17.16.26l.3.66.3.66c.08.23.18.45.28.67s.2.45.3.67h-.77q-.06-.12-.12-.27a2.489,2.489,0,0,1-.11-.29c-.04-.08-.08-.18-.12-.28s-.08-.2-.12-.32a.523.523,0,0,1-.07-.15.8.8,0,0,1-.08-.16c-.02-.05-.05-.11-.07-.17a1.336,1.336,0,0,1-.07-.18.556.556,0,0,1-.09-.17.664.664,0,0,1-.09-.19,1.139,1.139,0,0,1-.1-.19.933.933,0,0,1-.1-.2c-.04-.06-.08-.13-.12-.19s-.09-.11-.13-.15a1.708,1.708,0,0,1-.14-.11c-.05-.02-.1-.05-.14-.07-.06-.02-.12-.03-.17-.05a.508.508,0,0,1-.17-.03h-.2a.308.308,0,0,1-.1-.01h-1.11V-.8a1.087,1.087,0,0,0,.01.18v.18a1.149,1.149,0,0,0,.01.19h-.69a.375.375,0,0,1,.01-.1.375.375,0,0,1,.01-.1V-6.36Zm.65,2.33h1.32a2.174,2.174,0,0,0,.36-.02,1.061,1.061,0,0,0,.34-.06,1.176,1.176,0,0,0,.3-.1,1.349,1.349,0,0,0,.26-.15.668.668,0,0,0,.2-.18,1.034,1.034,0,0,0,.16-.23,1.692,1.692,0,0,0,.1-.27,1.416,1.416,0,0,0,.03-.31,1.35,1.35,0,0,0-.1-.5,1.355,1.355,0,0,0-.3-.37,1.778,1.778,0,0,0-.52-.23,3.847,3.847,0,0,0-.73-.07h-1.42ZM161.89-.86a2.839,2.839,0,0,1-.16.96,1.82,1.82,0,0,1-.46.68,2.192,2.192,0,0,1-.8.43,4.808,4.808,0,0,1-1.13.13c-.14,0-.27-.01-.39-.01s-.26-.02-.38-.04a3.728,3.728,0,0,1-.44-.08,3.579,3.579,0,0,1-.49-.17.127.127,0,0,1,.01-.06V.9a.186.186,0,0,1,.02-.07.2.2,0,0,1,.01-.08.57.57,0,0,1,.01-.13.4.4,0,0,1,.03-.15,3.382,3.382,0,0,0,.44.18,3.059,3.059,0,0,0,.41.1,3.653,3.653,0,0,0,.4.07c.14.01.3.02.48.02a2.466,2.466,0,0,0,.75-.11,1.639,1.639,0,0,0,.58-.35,1.424,1.424,0,0,0,.36-.56,2.283,2.283,0,0,0,.12-.78V-1.7l-.12.18c-.04.06-.09.12-.13.18-.06.06-.12.12-.18.17a2.079,2.079,0,0,1-.2.15,1.492,1.492,0,0,1-.24.14,1.426,1.426,0,0,1-.27.09,1.156,1.156,0,0,1-.31.07,2.055,2.055,0,0,1-.35.02,2.1,2.1,0,0,1-.51-.05,1.5,1.5,0,0,1-.44-.13,1.524,1.524,0,0,1-.38-.2,1.194,1.194,0,0,1-.31-.28,1.644,1.644,0,0,1-.26-.33,1.359,1.359,0,0,1-.17-.39,1.3,1.3,0,0,1-.11-.41,2.252,2.252,0,0,1-.04-.46,4.027,4.027,0,0,1,.03-.49,2.042,2.042,0,0,1,.11-.46,1.783,1.783,0,0,1,.17-.41,1.952,1.952,0,0,1,.25-.36,1.7,1.7,0,0,1,.31-.28,3.641,3.641,0,0,1,.39-.23,2.526,2.526,0,0,1,.44-.14,4.074,4.074,0,0,1,.52-.04,2.588,2.588,0,0,1,.63.08,2.3,2.3,0,0,1,.53.23,4.4,4.4,0,0,1,.39.35,3.405,3.405,0,0,1,.28.42v-.47a1.642,1.642,0,0,1-.02-.23,2.09,2.09,0,0,1-.01-.26h.66a1.188,1.188,0,0,0-.02.25v.22a1.849,1.849,0,0,0-.01.23V-.86ZM157.91-3a2.3,2.3,0,0,0,.02.38,1.21,1.21,0,0,0,.08.34.773.773,0,0,0,.12.31.966.966,0,0,0,.19.26.883.883,0,0,0,.22.21.857.857,0,0,0,.3.16.908.908,0,0,0,.34.11,2.376,2.376,0,0,0,.39.03,2.34,2.34,0,0,0,.38-.03,1.182,1.182,0,0,0,.35-.11,1.124,1.124,0,0,0,.28-.16,2.253,2.253,0,0,0,.24-.21,2.923,2.923,0,0,0,.18-.26,1.8,1.8,0,0,0,.14-.31c.02-.1.05-.22.07-.34a2.252,2.252,0,0,0,.03-.38,2.186,2.186,0,0,0-.03-.36c-.02-.11-.05-.23-.07-.35-.04-.1-.09-.21-.14-.31s-.12-.18-.18-.28c-.08-.08-.16-.15-.24-.22s-.18-.13-.28-.19c-.12-.04-.23-.08-.35-.11a2.328,2.328,0,0,0-.38-.04,2.371,2.371,0,0,0-.41.04,2.268,2.268,0,0,0-.34.11,1.976,1.976,0,0,0-.3.18,1.144,1.144,0,0,0-.22.22,1.308,1.308,0,0,0-.18.28,1.28,1.28,0,0,0-.11.31,1.554,1.554,0,0,0-.08.36A2.175,2.175,0,0,0,157.91-3Zm5.84-1.87c.11-.06.23-.13.37-.19s.28-.1.44-.15c.14-.04.29-.07.45-.1a3.186,3.186,0,0,1,.45-.03,3.09,3.09,0,0,1,.92.13,1.669,1.669,0,0,1,.62.38,2.053,2.053,0,0,1,.34.64,3.339,3.339,0,0,1,.11.87v2.28c0,.18,0,.34.01.46a1.373,1.373,0,0,0,.02.31h-.6v-.2a.448.448,0,0,1,.01-.11v-.6l-.12.18a2.2,2.2,0,0,0-.14.18c-.06.06-.13.12-.19.17a2.326,2.326,0,0,1-.2.16,1.571,1.571,0,0,1-.25.14,1.476,1.476,0,0,1-.27.1,1.181,1.181,0,0,1-.31.08,2.055,2.055,0,0,1-.35.02,2.726,2.726,0,0,1-.74-.09,1.492,1.492,0,0,1-.57-.26.942.942,0,0,1-.37-.46,1.69,1.69,0,0,1-.12-.68,1.4,1.4,0,0,1,.06-.41.907.907,0,0,1,.17-.34,1.326,1.326,0,0,1,.26-.27,1.994,1.994,0,0,1,.32-.22,2.288,2.288,0,0,1,.35-.16c.12-.04.26-.07.4-.11.12-.02.25-.04.38-.06s.25-.02.37-.02h1.25a3.323,3.323,0,0,0-.11-.69,1.733,1.733,0,0,0-.25-.51,1.268,1.268,0,0,0-.46-.32,2.318,2.318,0,0,0-.68-.1,2.308,2.308,0,0,0-.37.03c-.14.03-.27.06-.41.1-.14.06-.28.11-.4.16a3.756,3.756,0,0,0-.35.18Zm3.07,2.09h-.93a1.526,1.526,0,0,1-.3.03,1.816,1.816,0,0,1-.32.03q-.18.03-.33.06a2.812,2.812,0,0,0-.31.1,1.247,1.247,0,0,0-.28.15,1.436,1.436,0,0,0-.22.19.537.537,0,0,0-.15.26.828.828,0,0,0-.05.32.732.732,0,0,0,.03.22.61.61,0,0,0,.09.2.371.371,0,0,0,.13.17.539.539,0,0,0,.16.14.419.419,0,0,0,.18.11.6.6,0,0,0,.2.08.455.455,0,0,0,.2.05.648.648,0,0,0,.2.02,2.34,2.34,0,0,0,.38-.03,1.182,1.182,0,0,0,.35-.11,1.509,1.509,0,0,0,.28-.15,1.459,1.459,0,0,0,.25-.2,1.55,1.55,0,0,0,.19-.23,1.59,1.59,0,0,0,.14-.26,1.976,1.976,0,0,0,.08-.26,1.115,1.115,0,0,0,.03-.27Zm2.96,1.62v.69a.858.858,0,0,0,.02.23h-.67V-.32a.538.538,0,0,1,.01-.11V-.81a.487.487,0,0,1,.01-.12V-7.31a.308.308,0,0,1-.01-.1v-.12a.486.486,0,0,1-.01-.12h.67a.2.2,0,0,0-.01.07v.06a.249.249,0,0,0-.01.08v6.28Zm2.48,0v.69a.858.858,0,0,0,.02.23h-.67V-.32a.538.538,0,0,1,.01-.11V-.81a.487.487,0,0,1,.01-.12V-7.31a.308.308,0,0,1-.01-.1v-.12a.486.486,0,0,1-.01-.12h.67a.2.2,0,0,0-.01.07v.06a.249.249,0,0,0-.01.08v6.28Zm5.62.11a.663.663,0,0,0,.01.15.521.521,0,0,0,.02.14v.15a.341.341,0,0,0,.02.15c-.04.02-.07.03-.09.04a.16.16,0,0,1-.08.03.16.16,0,0,1-.08.03.133.133,0,0,1-.07.03c-.06.02-.12.04-.17.06a.526.526,0,0,1-.17.04.787.787,0,0,1-.2.04.822.822,0,0,1-.21.02.974.974,0,0,1-.24.02h-.26a2.9,2.9,0,0,1-.61-.05,1.719,1.719,0,0,1-.53-.14,1.591,1.591,0,0,1-.45-.23,1.587,1.587,0,0,1-.36-.32,1.533,1.533,0,0,1-.29-.38,1.653,1.653,0,0,1-.19-.47,2.083,2.083,0,0,1-.12-.52,3.523,3.523,0,0,1-.04-.58,2.961,2.961,0,0,1,.04-.52,2.142,2.142,0,0,1,.13-.48,1.949,1.949,0,0,1,.19-.42,3,3,0,0,1,.28-.37,3.109,3.109,0,0,1,.33-.29,3.005,3.005,0,0,1,.4-.23,2.767,2.767,0,0,1,.46-.14,2.756,2.756,0,0,1,.51-.05,3.287,3.287,0,0,1,.54.05,3.092,3.092,0,0,1,.46.14c.13.08.25.16.37.24.11.1.21.2.31.31a3.611,3.611,0,0,1,.22.39c.06.15.12.3.17.46a4.341,4.341,0,0,1,.09.52c.02.18.03.37.04.56h-3.86a2.154,2.154,0,0,0,.04.45,1.281,1.281,0,0,0,.13.39,1.229,1.229,0,0,0,.19.36,1.156,1.156,0,0,0,.26.28.955.955,0,0,0,.29.24,1.262,1.262,0,0,0,.33.16,1.1,1.1,0,0,0,.35.11,2.186,2.186,0,0,0,.36.03,3.145,3.145,0,0,0,.44-.03,3.01,3.01,0,0,0,.41-.09,1.957,1.957,0,0,0,.34-.12A2.091,2.091,0,0,0,177.88-1.05Zm-.24-2.06a2.019,2.019,0,0,0-.03-.33c-.02-.1-.05-.21-.08-.33-.04-.1-.09-.19-.14-.29s-.12-.18-.18-.26c-.08-.08-.15-.15-.23-.22s-.17-.11-.26-.17c-.1-.04-.21-.07-.31-.1a1.865,1.865,0,0,0-.32-.04,2.111,2.111,0,0,0-.38.04c-.12.04-.22.08-.32.12-.1.06-.2.13-.28.19a1.211,1.211,0,0,0-.23.22,1.483,1.483,0,0,0-.19.27,1.234,1.234,0,0,0-.13.29,2.117,2.117,0,0,0-.09.31,1.032,1.032,0,0,0-.04.3Zm4.43-1.67a2,2,0,0,0-.37.04q-.18.06-.33.12a1.27,1.27,0,0,0-.29.21,1.015,1.015,0,0,0-.24.27,1.682,1.682,0,0,0-.2.34,2.739,2.739,0,0,0-.15.4,3.4,3.4,0,0,0-.09.46,4.069,4.069,0,0,0-.03.5V-.85a1.149,1.149,0,0,0,.01.19v.2a1.147,1.147,0,0,0,.01.19h-.67a.487.487,0,0,1,.01-.12c0-.04.01-.08.01-.12V-4.92a.222.222,0,0,1-.01-.09v-.1a.375.375,0,0,1-.01-.11h.66a.487.487,0,0,0-.01.12V-5a.487.487,0,0,0-.01.12v.72a1.663,1.663,0,0,1,.25-.45,2.195,2.195,0,0,1,.37-.38,1.535,1.535,0,0,1,.47-.26,1.7,1.7,0,0,1,.57-.09c.08,0,.15.01.23.01a1.21,1.21,0,0,0,.19.01.334.334,0,0,0,.15.03.334.334,0,0,0,.15.03.2.2,0,0,0-.01.07.309.309,0,0,0-.02.08.127.127,0,0,0-.01.06.2.2,0,0,0-.01.07.493.493,0,0,0-.03.15.442.442,0,0,0-.02.15.647.647,0,0,1-.13-.04.5.5,0,0,1-.13-.04.808.808,0,0,1-.16-.01C182.16-4.77,182.11-4.78,182.07-4.78Zm1.87,6.02h-.14c-.05,0-.09-.01-.13-.01s-.09-.01-.13-.01-.09-.02-.13-.03a.127.127,0,0,1,.01-.06V1.07a.127.127,0,0,1,.01-.06.148.148,0,0,1,.01-.07.487.487,0,0,1,.01-.12.3.3,0,0,1,.02-.13,1.163,1.163,0,0,0,.18.04c.06,0,.12.01.2.01a1.526,1.526,0,0,0,.3-.03,1.166,1.166,0,0,0,.26-.1c.07-.04.14-.09.21-.14l.18-.18c.04-.06.09-.13.13-.19s.07-.14.11-.22a.69.69,0,0,1,.04-.1c.01-.03.02-.06.03-.1a.69.69,0,0,1,.04-.1.23.23,0,0,1,.03-.09l-1.9-4.73h.66l1.5,3.9c0,.02,0,.03.01.04s0,.03.01.04a.052.052,0,0,0,.02.04c0,.02,0,.03.01.03a.172.172,0,0,0,.01.08c0,.02,0,.04.02.05a.031.031,0,0,1,.01-.02v-.03a.124.124,0,0,0,.02-.03.109.109,0,0,1,.01-.05.2.2,0,0,1,.01-.07.135.135,0,0,1,.02-.08l1.44-3.9h.66l-1.82,4.6c-.06.12-.11.24-.15.34-.06.12-.11.23-.16.33-.06.12-.13.23-.19.33s-.14.19-.21.28-.17.17-.25.25a1.666,1.666,0,0,1-.28.18,1.266,1.266,0,0,1-.32.13A2.325,2.325,0,0,1,183.94,1.24ZM195.17-.25c-.06-.15-.12-.3-.18-.46s-.12-.31-.17-.47c-.06-.14-.12-.3-.18-.46s-.12-.31-.17-.47h-3.22a1.173,1.173,0,0,0-.09.24,1.173,1.173,0,0,0-.09.24c-.03.08-.06.15-.08.22a1.356,1.356,0,0,0-.09.23c-.06.16-.12.32-.18.47s-.12.31-.17.46h-.69l2.61-6.87h.77c.24.68.48,1.32.72,1.93s.46,1.21.68,1.77q.315.87.63,1.65c.2.54.39,1.04.59,1.52Zm-3.72-2.41h2.81l-1.29-3.48a.578.578,0,0,1-.05-.14.254.254,0,0,1-.02-.12.169.169,0,0,1-.03-.1.375.375,0,0,1-.01-.11h-.01c0,.04-.01.07-.01.1a.425.425,0,0,0-.02.11.928.928,0,0,0-.04.13.927.927,0,0,0-.04.13Zm6.21,1.5v.69a.858.858,0,0,0,.02.23h-.67V-.32a.538.538,0,0,1,.01-.11V-.81a.487.487,0,0,1,.01-.12V-7.31a.308.308,0,0,1-.01-.1v-.12a.486.486,0,0,1-.01-.12h.67a.2.2,0,0,0-.01.07v.06a.249.249,0,0,0-.01.08v6.28Zm2.48,0v.69a.858.858,0,0,0,.02.23h-.67V-.32a.538.538,0,0,1,.01-.11V-.81a.487.487,0,0,1,.01-.12V-7.31a.308.308,0,0,1-.01-.1v-.12a.486.486,0,0,1-.01-.12h.67a.2.2,0,0,0-.01.07v.06a.249.249,0,0,0-.01.08v6.28Zm5.8-3.62a2,2,0,0,0-.37.04q-.18.06-.33.12a1.27,1.27,0,0,0-.29.21,1.015,1.015,0,0,0-.24.27,1.682,1.682,0,0,0-.2.34,2.739,2.739,0,0,0-.15.4,3.4,3.4,0,0,0-.09.46,4.069,4.069,0,0,0-.03.5V-.85a1.149,1.149,0,0,0,.01.19v.2a1.147,1.147,0,0,0,.01.19h-.67a.487.487,0,0,1,.01-.12c0-.04.01-.08.01-.12V-4.92a.222.222,0,0,1-.01-.09v-.1a.375.375,0,0,1-.01-.11h.66a.487.487,0,0,0-.01.12V-5a.487.487,0,0,0-.01.12v.72a1.663,1.663,0,0,1,.25-.45,2.195,2.195,0,0,1,.37-.38,1.535,1.535,0,0,1,.47-.26,1.7,1.7,0,0,1,.57-.09c.08,0,.15.01.23.01a1.21,1.21,0,0,0,.19.01.334.334,0,0,0,.15.03.334.334,0,0,0,.15.03.2.2,0,0,0-.01.07.309.309,0,0,0-.02.08.127.127,0,0,0-.01.06.2.2,0,0,0-.01.07.493.493,0,0,0-.03.15.442.442,0,0,0-.02.15.647.647,0,0,1-.13-.04.5.5,0,0,1-.13-.04.808.808,0,0,1-.16-.01C206.03-4.77,205.98-4.78,205.94-4.78Zm2.62-1.74h-.79v-.87h.79Zm-.06,5.36v.69a.785.785,0,0,0,.02.22h-.71a.375.375,0,0,1,.01-.1.375.375,0,0,1,.01-.1v-4.4a.308.308,0,0,1-.01-.1v-.12a.487.487,0,0,1-.01-.12h.71a1.188,1.188,0,0,0-.02.25v3.78Zm6.19.3a2.839,2.839,0,0,1-.16.96,1.82,1.82,0,0,1-.46.68,2.192,2.192,0,0,1-.8.43,4.808,4.808,0,0,1-1.13.13c-.14,0-.27-.01-.39-.01s-.26-.02-.38-.04a3.728,3.728,0,0,1-.44-.08,3.579,3.579,0,0,1-.49-.17.127.127,0,0,1,.01-.06V.9a.186.186,0,0,1,.02-.07.2.2,0,0,1,.01-.08.57.57,0,0,1,.01-.13.4.4,0,0,1,.03-.15,3.382,3.382,0,0,0,.44.18,3.059,3.059,0,0,0,.41.1,3.653,3.653,0,0,0,.4.07c.14.01.3.02.48.02A2.466,2.466,0,0,0,213,.73a1.639,1.639,0,0,0,.58-.35,1.424,1.424,0,0,0,.36-.56,2.283,2.283,0,0,0,.12-.78V-1.7l-.12.18c-.04.06-.09.12-.13.18-.06.06-.12.12-.18.17a2.079,2.079,0,0,1-.2.15,1.492,1.492,0,0,1-.24.14,1.426,1.426,0,0,1-.27.09,1.156,1.156,0,0,1-.31.07,2.055,2.055,0,0,1-.35.02,2.1,2.1,0,0,1-.51-.05,1.5,1.5,0,0,1-.44-.13,1.524,1.524,0,0,1-.38-.2,1.194,1.194,0,0,1-.31-.28,1.644,1.644,0,0,1-.26-.33,1.359,1.359,0,0,1-.17-.39,1.3,1.3,0,0,1-.11-.41,2.252,2.252,0,0,1-.04-.46,4.027,4.027,0,0,1,.03-.49,2.042,2.042,0,0,1,.11-.46,1.783,1.783,0,0,1,.17-.41,1.952,1.952,0,0,1,.25-.36,1.7,1.7,0,0,1,.31-.28,3.641,3.641,0,0,1,.39-.23,2.526,2.526,0,0,1,.44-.14,4.074,4.074,0,0,1,.52-.04,2.588,2.588,0,0,1,.63.08,2.3,2.3,0,0,1,.53.23,4.4,4.4,0,0,1,.39.35,3.405,3.405,0,0,1,.28.42v-.47a1.642,1.642,0,0,1-.02-.23,2.09,2.09,0,0,1-.01-.26h.66a1.188,1.188,0,0,0-.02.25v.22a1.849,1.849,0,0,0-.01.23V-.86ZM210.71-3a2.3,2.3,0,0,0,.02.38,1.21,1.21,0,0,0,.08.34.773.773,0,0,0,.12.31.966.966,0,0,0,.19.26.883.883,0,0,0,.22.21.857.857,0,0,0,.3.16.908.908,0,0,0,.34.11,2.376,2.376,0,0,0,.39.03,2.34,2.34,0,0,0,.38-.03,1.182,1.182,0,0,0,.35-.11,1.124,1.124,0,0,0,.28-.16,2.253,2.253,0,0,0,.24-.21,2.923,2.923,0,0,0,.18-.26,1.8,1.8,0,0,0,.14-.31c.02-.1.05-.22.07-.34a2.252,2.252,0,0,0,.03-.38,2.186,2.186,0,0,0-.03-.36c-.02-.11-.05-.23-.07-.35-.04-.1-.09-.21-.14-.31s-.12-.18-.18-.28c-.08-.08-.16-.15-.24-.22s-.18-.13-.28-.19c-.12-.04-.23-.08-.35-.11a2.328,2.328,0,0,0-.38-.04,2.371,2.371,0,0,0-.41.04,2.268,2.268,0,0,0-.34.11,1.976,1.976,0,0,0-.3.18,1.144,1.144,0,0,0-.22.22,1.308,1.308,0,0,0-.18.28,1.28,1.28,0,0,0-.11.31,1.554,1.554,0,0,0-.08.36A2.175,2.175,0,0,0,210.71-3Zm6.33-1.22a1.544,1.544,0,0,1,.27-.46,1.761,1.761,0,0,1,.41-.35,2.812,2.812,0,0,1,.52-.21,2.84,2.84,0,0,1,.61-.07,2.383,2.383,0,0,1,.84.14,1.61,1.61,0,0,1,.58.41,2.192,2.192,0,0,1,.32.67,3.417,3.417,0,0,1,.11.88V-.43a.584.584,0,0,0,.02.19h-.68a2.088,2.088,0,0,1,.01-.25,1.786,1.786,0,0,1,.02-.23V-2.81a5.679,5.679,0,0,0-.07-.87,2.566,2.566,0,0,0-.2-.61,1.292,1.292,0,0,0-.4-.37,1.756,1.756,0,0,0-.61-.16,2.477,2.477,0,0,0-.41.04,2.343,2.343,0,0,0-.35.13,1.405,1.405,0,0,0-.31.21,1.234,1.234,0,0,0-.24.28,1.683,1.683,0,0,0-.2.34,1.626,1.626,0,0,0-.13.39,2.136,2.136,0,0,0-.08.44,3.71,3.71,0,0,0-.03.47V-.43a.584.584,0,0,0,.02.19h-.68a2.091,2.091,0,0,1,.01-.25,1.783,1.783,0,0,1,.02-.23V-6.91c0-.12-.01-.24-.01-.36s-.02-.24-.02-.38h.68a1.057,1.057,0,0,0-.02.24v3.19ZM223-5.95c0-.12-.01-.25-.01-.39s-.02-.26-.02-.4h.68a.391.391,0,0,0-.02.14v1.4h1.25a.442.442,0,0,0,.15-.02v.53a.127.127,0,0,1-.06-.01h-.05c-.02,0-.03,0-.04-.01h-1.25v3.03a1.325,1.325,0,0,0,.02.3.49.49,0,0,0,.05.23.474.474,0,0,0,.08.19.274.274,0,0,0,.13.13.4.4,0,0,0,.15.1.356.356,0,0,0,.19.05.665.665,0,0,0,.21.03,2.092,2.092,0,0,0,.26.01.344.344,0,0,0,.09-.01.217.217,0,0,0,.1-.02A.183.183,0,0,0,225-.69a.308.308,0,0,0,.09-.04v.5c-.06.02-.11.04-.15.05a.442.442,0,0,1-.15.02.524.524,0,0,1-.17.02,1.087,1.087,0,0,1-.18.01,1.842,1.842,0,0,1-.61-.08.9.9,0,0,1-.45-.24.774.774,0,0,1-.29-.41,1.888,1.888,0,0,1-.09-.62V-4.71h-.93a.487.487,0,0,1-.12.01.615.615,0,0,1-.13.01v-.53a.15.15,0,0,0,.1.02H223Zm7.4,1.17a2,2,0,0,0-.37.04q-.18.06-.33.12a1.27,1.27,0,0,0-.29.21,1.015,1.015,0,0,0-.24.27,1.682,1.682,0,0,0-.2.34,2.739,2.739,0,0,0-.15.4,3.4,3.4,0,0,0-.09.46,4.069,4.069,0,0,0-.03.5V-.85a1.149,1.149,0,0,0,.01.19v.2a1.147,1.147,0,0,0,.01.19h-.67a.487.487,0,0,1,.01-.12c0-.04.01-.08.01-.12V-4.92a.222.222,0,0,1-.01-.09v-.1a.375.375,0,0,1-.01-.11h.66a.487.487,0,0,0-.01.12V-5a.487.487,0,0,0-.01.12v.72a1.663,1.663,0,0,1,.25-.45,2.195,2.195,0,0,1,.37-.38,1.535,1.535,0,0,1,.47-.26,1.7,1.7,0,0,1,.57-.09c.08,0,.15.01.23.01a1.21,1.21,0,0,0,.19.01.334.334,0,0,0,.15.03.334.334,0,0,0,.15.03.2.2,0,0,0-.01.07.309.309,0,0,0-.02.08.127.127,0,0,0-.01.06.2.2,0,0,0-.01.07.493.493,0,0,0-.03.15.442.442,0,0,0-.02.15.647.647,0,0,1-.13-.04.5.5,0,0,1-.13-.04.808.808,0,0,1-.16-.01C230.49-4.77,230.44-4.78,230.4-4.78Zm5.62,3.73a.663.663,0,0,0,.01.15.521.521,0,0,0,.02.14v.15a.341.341,0,0,0,.02.15c-.04.02-.07.03-.09.04a.16.16,0,0,1-.08.03.16.16,0,0,1-.08.03.133.133,0,0,1-.07.03c-.06.02-.12.04-.17.06a.526.526,0,0,1-.17.04.787.787,0,0,1-.2.04.822.822,0,0,1-.21.02.974.974,0,0,1-.24.02h-.26a2.9,2.9,0,0,1-.61-.05,1.719,1.719,0,0,1-.53-.14,1.591,1.591,0,0,1-.45-.23,1.587,1.587,0,0,1-.36-.32,1.533,1.533,0,0,1-.29-.38,1.653,1.653,0,0,1-.19-.47,2.083,2.083,0,0,1-.12-.52,3.523,3.523,0,0,1-.04-.58,2.961,2.961,0,0,1,.04-.52,2.142,2.142,0,0,1,.13-.48,1.949,1.949,0,0,1,.19-.42,3,3,0,0,1,.28-.37,3.109,3.109,0,0,1,.33-.29,3.005,3.005,0,0,1,.4-.23,2.767,2.767,0,0,1,.46-.14,2.756,2.756,0,0,1,.51-.05,3.287,3.287,0,0,1,.54.05,3.092,3.092,0,0,1,.46.14c.13.08.25.16.37.24.11.1.21.2.31.31a3.611,3.611,0,0,1,.22.39c.06.15.12.3.17.46a4.341,4.341,0,0,1,.09.52c.02.18.03.37.04.56h-3.86a2.154,2.154,0,0,0,.04.45,1.281,1.281,0,0,0,.13.39,1.229,1.229,0,0,0,.19.36,1.156,1.156,0,0,0,.26.28.955.955,0,0,0,.29.24,1.262,1.262,0,0,0,.33.16,1.1,1.1,0,0,0,.35.11,2.186,2.186,0,0,0,.36.03,3.145,3.145,0,0,0,.44-.03,3.01,3.01,0,0,0,.41-.09,1.957,1.957,0,0,0,.34-.12A2.091,2.091,0,0,0,236.02-1.05Zm-.24-2.06a2.019,2.019,0,0,0-.03-.33c-.02-.1-.05-.21-.08-.33-.04-.1-.09-.19-.14-.29s-.12-.18-.18-.26c-.08-.08-.15-.15-.23-.22s-.17-.11-.26-.17c-.1-.04-.21-.07-.31-.1a1.865,1.865,0,0,0-.32-.04,2.111,2.111,0,0,0-.38.04c-.12.04-.22.08-.32.12-.1.06-.2.13-.28.19a1.211,1.211,0,0,0-.23.22,1.483,1.483,0,0,0-.19.27,1.234,1.234,0,0,0-.13.29,2.117,2.117,0,0,0-.09.31,1.032,1.032,0,0,0-.04.3ZM237.43-.4V-.52a.249.249,0,0,1,.01-.08.2.2,0,0,1,.01-.07V-.8a.318.318,0,0,1,.02-.13.4.4,0,0,0,.16.08.973.973,0,0,0,.2.05,1.055,1.055,0,0,0,.19.05.665.665,0,0,0,.21.03.585.585,0,0,0,.19.04,1.275,1.275,0,0,0,.2.01.5.5,0,0,0,.17.02h.14a2.175,2.175,0,0,0,.25-.01,1.376,1.376,0,0,0,.26-.04.687.687,0,0,0,.24-.05,1.278,1.278,0,0,0,.22-.09.622.622,0,0,0,.19-.11c.05-.04.1-.1.16-.16a.674.674,0,0,0,.1-.19.78.78,0,0,0,.03-.24.566.566,0,0,0-.03-.18c-.03-.05-.06-.1-.1-.16a1.92,1.92,0,0,1-.15-.14,2.2,2.2,0,0,1-.18-.14,2.014,2.014,0,0,1-.21-.11,2.4,2.4,0,0,1-.23-.11.611.611,0,0,1-.12-.05.564.564,0,0,1-.12-.04.313.313,0,0,1-.1-.05.37.37,0,0,1-.11-.05,2.369,2.369,0,0,1-.32-.13,2.55,2.55,0,0,1-.29-.13,1.816,1.816,0,0,1-.28-.13.785.785,0,0,1-.23-.16.642.642,0,0,1-.2-.16.655.655,0,0,1-.15-.18.472.472,0,0,1-.1-.2.9.9,0,0,1-.03-.25,1.339,1.339,0,0,1,.14-.64,1.036,1.036,0,0,1,.41-.45,2.588,2.588,0,0,1,.63-.25,3.4,3.4,0,0,1,.83-.09c.14,0,.27.01.4.01.12.02.23.03.33.04s.18.04.28.06a2.46,2.46,0,0,0,.29.07.391.391,0,0,0-.02.14.615.615,0,0,0-.01.13.392.392,0,0,0-.03.14.615.615,0,0,0-.01.13c-.1-.03-.19-.06-.29-.1-.1-.02-.2-.05-.3-.07-.12-.02-.22-.03-.3-.05-.1,0-.18-.01-.24-.01-.1,0-.2.01-.29.01-.1.02-.19.03-.27.04-.1.02-.18.04-.25.06s-.15.06-.21.08a.7.7,0,0,0-.18.12.531.531,0,0,0-.13.13.477.477,0,0,0-.08.16.566.566,0,0,0-.03.18.5.5,0,0,0,.03.19.336.336,0,0,0,.1.16.5.5,0,0,0,.14.15.7.7,0,0,0,.19.13,1.758,1.758,0,0,0,.2.12.943.943,0,0,0,.23.1.875.875,0,0,0,.22.1,1.033,1.033,0,0,0,.21.07.612.612,0,0,0,.12.05.5.5,0,0,0,.13.05.5.5,0,0,0,.13.05.527.527,0,0,0,.15.05c.08.04.17.09.27.13a2.147,2.147,0,0,0,.26.14c.08.06.15.13.22.19s.13.14.19.2c.04.08.08.17.12.26a1.445,1.445,0,0,1,.04.29,1.794,1.794,0,0,1-.04.36,1.5,1.5,0,0,1-.1.3,1.949,1.949,0,0,1-.18.26,1.373,1.373,0,0,1-.22.2,2.091,2.091,0,0,1-.29.16,1.213,1.213,0,0,1-.32.11,1.609,1.609,0,0,1-.37.07,2.8,2.8,0,0,1-.4.03h-.19a1.342,1.342,0,0,1-.21-.01,1.7,1.7,0,0,1-.23-.01.852.852,0,0,1-.23-.03.852.852,0,0,1-.23-.03,1.2,1.2,0,0,1-.22-.05,1.08,1.08,0,0,1-.21-.05A.751.751,0,0,1,237.43-.4Zm8.7-.65a.663.663,0,0,0,.01.15.521.521,0,0,0,.02.14v.15a.341.341,0,0,0,.02.15c-.04.02-.07.03-.09.04a.16.16,0,0,1-.08.03.16.16,0,0,1-.08.03.133.133,0,0,1-.07.03c-.06.02-.12.04-.17.06a.526.526,0,0,1-.17.04.787.787,0,0,1-.2.04.822.822,0,0,1-.21.02.974.974,0,0,1-.24.02h-.26A2.9,2.9,0,0,1,244-.2a1.719,1.719,0,0,1-.53-.14,1.591,1.591,0,0,1-.45-.23,1.587,1.587,0,0,1-.36-.32,1.533,1.533,0,0,1-.29-.38,1.653,1.653,0,0,1-.19-.47,2.083,2.083,0,0,1-.12-.52,3.523,3.523,0,0,1-.04-.58,2.961,2.961,0,0,1,.04-.52,2.142,2.142,0,0,1,.13-.48,1.949,1.949,0,0,1,.19-.42,3,3,0,0,1,.28-.37,3.109,3.109,0,0,1,.33-.29,3.005,3.005,0,0,1,.4-.23,2.767,2.767,0,0,1,.46-.14,2.756,2.756,0,0,1,.51-.05,3.287,3.287,0,0,1,.54.05,3.092,3.092,0,0,1,.46.14c.13.08.25.16.37.24.11.1.21.2.31.31a3.608,3.608,0,0,1,.22.39c.06.15.12.3.17.46a4.341,4.341,0,0,1,.09.52c.02.18.03.37.04.56H242.7a2.154,2.154,0,0,0,.04.45,1.281,1.281,0,0,0,.13.39,1.229,1.229,0,0,0,.19.36,1.156,1.156,0,0,0,.26.28.955.955,0,0,0,.29.24,1.262,1.262,0,0,0,.33.16,1.1,1.1,0,0,0,.35.11,2.186,2.186,0,0,0,.36.03,3.145,3.145,0,0,0,.44-.03,3.01,3.01,0,0,0,.41-.09,1.957,1.957,0,0,0,.34-.12A2.091,2.091,0,0,0,246.13-1.05Zm-.24-2.06a2.019,2.019,0,0,0-.03-.33c-.02-.1-.05-.21-.08-.33-.04-.1-.09-.19-.14-.29s-.12-.18-.18-.26c-.08-.08-.15-.15-.23-.22s-.17-.11-.26-.17c-.1-.04-.21-.07-.31-.1a1.865,1.865,0,0,0-.32-.04,2.111,2.111,0,0,0-.38.04c-.12.04-.22.08-.32.12-.1.06-.2.13-.28.19a1.211,1.211,0,0,0-.23.22,1.483,1.483,0,0,0-.19.27,1.234,1.234,0,0,0-.13.29,2.117,2.117,0,0,0-.09.31,1.032,1.032,0,0,0-.04.3Zm4.43-1.67a2,2,0,0,0-.37.04q-.18.06-.33.12a1.27,1.27,0,0,0-.29.21,1.015,1.015,0,0,0-.24.27,1.682,1.682,0,0,0-.2.34,2.739,2.739,0,0,0-.15.4,3.4,3.4,0,0,0-.09.46,4.069,4.069,0,0,0-.03.5V-.85a1.149,1.149,0,0,0,.01.19v.2a1.147,1.147,0,0,0,.01.19h-.67a.487.487,0,0,1,.01-.12c0-.04.01-.08.01-.12V-4.92a.222.222,0,0,1-.01-.09v-.1a.375.375,0,0,1-.01-.11h.66a.487.487,0,0,0-.01.12V-5a.487.487,0,0,0-.01.12v.72a1.663,1.663,0,0,1,.25-.45,2.195,2.195,0,0,1,.37-.38,1.535,1.535,0,0,1,.47-.26,1.7,1.7,0,0,1,.57-.09c.08,0,.15.01.23.01a1.21,1.21,0,0,0,.19.01.334.334,0,0,0,.15.03.334.334,0,0,0,.15.03.2.2,0,0,0-.01.07.309.309,0,0,0-.02.08.127.127,0,0,0-.01.06.2.2,0,0,0-.01.07.493.493,0,0,0-.03.15.442.442,0,0,0-.02.15.647.647,0,0,1-.13-.04.5.5,0,0,1-.13-.04.808.808,0,0,1-.16-.01C250.41-4.77,250.36-4.78,250.32-4.78Zm5.91-.44L254.24-.27h-.68l-2.04-4.95h.69l1.64,4.12a.308.308,0,0,0,.03.13.5.5,0,0,0,.05.13.127.127,0,0,1,.01-.06.142.142,0,0,1,.02-.06V-.99a.077.077,0,0,1,.01-.03.077.077,0,0,1,.01-.03A.169.169,0,0,1,254-1.1l1.61-4.12Zm4.97,4.17a.662.662,0,0,0,.01.15.521.521,0,0,0,.02.14v.15a.342.342,0,0,0,.02.15c-.04.02-.07.03-.09.04a.16.16,0,0,1-.08.03.16.16,0,0,1-.08.03.133.133,0,0,1-.07.03c-.06.02-.12.04-.17.06a.526.526,0,0,1-.17.04.787.787,0,0,1-.2.04.822.822,0,0,1-.21.02.974.974,0,0,1-.24.02h-.26a2.9,2.9,0,0,1-.61-.05,1.719,1.719,0,0,1-.53-.14,1.591,1.591,0,0,1-.45-.23,1.588,1.588,0,0,1-.36-.32,1.533,1.533,0,0,1-.29-.38,1.654,1.654,0,0,1-.19-.47,2.084,2.084,0,0,1-.12-.52,3.523,3.523,0,0,1-.04-.58,2.961,2.961,0,0,1,.04-.52,2.143,2.143,0,0,1,.13-.48,1.949,1.949,0,0,1,.19-.42,3,3,0,0,1,.28-.37,3.11,3.11,0,0,1,.33-.29,3.006,3.006,0,0,1,.4-.23,2.766,2.766,0,0,1,.46-.14,2.756,2.756,0,0,1,.51-.05,3.287,3.287,0,0,1,.54.05,3.092,3.092,0,0,1,.46.14c.13.08.25.16.37.24.11.1.21.2.31.31a3.611,3.611,0,0,1,.22.39c.06.15.12.3.17.46a4.335,4.335,0,0,1,.09.52c.02.18.03.37.04.56h-3.86a2.154,2.154,0,0,0,.04.45,1.281,1.281,0,0,0,.13.39,1.229,1.229,0,0,0,.19.36,1.156,1.156,0,0,0,.26.28.955.955,0,0,0,.29.24,1.261,1.261,0,0,0,.33.16,1.1,1.1,0,0,0,.35.11,2.186,2.186,0,0,0,.36.03,3.145,3.145,0,0,0,.44-.03,3.009,3.009,0,0,0,.41-.09,1.957,1.957,0,0,0,.34-.12A2.091,2.091,0,0,0,261.2-1.05Zm-.24-2.06a2.021,2.021,0,0,0-.03-.33c-.02-.1-.05-.21-.08-.33-.04-.1-.09-.19-.14-.29s-.12-.18-.18-.26c-.08-.08-.15-.15-.23-.22s-.17-.11-.26-.17c-.1-.04-.21-.07-.31-.1a1.865,1.865,0,0,0-.32-.04,2.112,2.112,0,0,0-.38.04c-.12.04-.22.08-.32.12-.1.06-.2.13-.28.19a1.211,1.211,0,0,0-.23.22,1.482,1.482,0,0,0-.19.27,1.234,1.234,0,0,0-.13.29,2.113,2.113,0,0,0-.09.31,1.032,1.032,0,0,0-.04.3Zm5.87,1.93a.507.507,0,0,1-.09.16c-.04.06-.09.11-.13.17-.06.07-.12.13-.18.19a1.46,1.46,0,0,1-.21.16,1.349,1.349,0,0,1-.26.15,1.779,1.779,0,0,1-.29.12,1.515,1.515,0,0,1-.34.08,2.068,2.068,0,0,1-.35.03,2.317,2.317,0,0,1-.55-.06,1.277,1.277,0,0,1-.45-.17,1.391,1.391,0,0,1-.38-.25,1.385,1.385,0,0,1-.3-.34,1.44,1.44,0,0,1-.23-.4,2.756,2.756,0,0,1-.15-.46,3.858,3.858,0,0,1-.09-.49,4.118,4.118,0,0,1-.03-.51,4.03,4.03,0,0,1,.03-.49,2.737,2.737,0,0,1,.1-.48,2.406,2.406,0,0,1,.16-.42,1.727,1.727,0,0,1,.24-.38,2.23,2.23,0,0,1,.31-.3,2.778,2.778,0,0,1,.38-.25,2.52,2.52,0,0,1,.44-.15,2.808,2.808,0,0,1,.53-.05,2.616,2.616,0,0,1,.57.07,2.846,2.846,0,0,1,.51.2,2.32,2.32,0,0,1,.42.32,3.018,3.018,0,0,1,.32.39V-7.29a.375.375,0,0,1-.01-.11v-.12a.529.529,0,0,1-.01-.13h.67a.935.935,0,0,0-.02.23V-.99c0,.14,0,.26.01.38a2.175,2.175,0,0,0,.02.36h-.65V-.38a.249.249,0,0,1,.01-.08v-.72Zm-3.36-1.56a2.423,2.423,0,0,0,.02.39,1.507,1.507,0,0,0,.07.38,1.178,1.178,0,0,0,.1.36,1.015,1.015,0,0,0,.18.32,1.133,1.133,0,0,0,.22.27,1.207,1.207,0,0,0,.28.21.806.806,0,0,0,.33.14,1.28,1.28,0,0,0,.41.05,1.509,1.509,0,0,0,.42-.05.924.924,0,0,0,.36-.15,1.851,1.851,0,0,0,.29-.22,2.321,2.321,0,0,0,.24-.28c.06-.1.12-.2.18-.32A3.577,3.577,0,0,0,266.7-2c.02-.12.05-.24.07-.36s.02-.24.02-.36a2.533,2.533,0,0,0-.03-.38c-.02-.12-.05-.25-.08-.39-.04-.12-.09-.24-.14-.36s-.12-.22-.18-.32c-.08-.09-.17-.18-.25-.26a2.64,2.64,0,0,0-.29-.21,2.554,2.554,0,0,0-.35-.14,2.337,2.337,0,0,0-.39-.04,2.371,2.371,0,0,0-.41.04,1.637,1.637,0,0,0-.33.14,1.207,1.207,0,0,0-.28.21,1.322,1.322,0,0,0-.22.26,1.408,1.408,0,0,0-.17.32,1.571,1.571,0,0,0-.11.35,2.014,2.014,0,0,0-.07.39A2.359,2.359,0,0,0,263.47-2.74Zm6.31,2.45h-.87v-.93h.87Z" transform="translate(-0.57 7.93)" fill="#fff" opacity="0.8"/>
</svg>
