<svg xmlns="http://www.w3.org/2000/svg" width="24.89" height="7.1" viewBox="0 0 24.89 7.1">
  <path id="ILOVNY100" d="M2.01-1.33v.57a4.446,4.446,0,0,0,.02.55H.66C.67-.36.68-.54.69-.76V-6.55c-.01-.2-.02-.39-.03-.56H2.03a4.791,4.791,0,0,0-.02.56v5.22Zm6.17-.06A4.011,4.011,0,0,0,7.45-.01a3.864,3.864,0,0,0-.73-1.37,3.918,3.918,0,0,1-.25-.32,3.876,3.876,0,0,1-.26-.31c-.21-.24-.42-.5-.63-.77-.14-.17-.27-.36-.41-.57a6.894,6.894,0,0,1-.4-.64,2.717,2.717,0,0,1-.39-1.4A1.455,1.455,0,0,1,4.8-6.46a1.433,1.433,0,0,1,1.05-.43,1.407,1.407,0,0,1,1.02.45A2.059,2.059,0,0,1,7.42-5.4h.06a2.04,2.04,0,0,1,.54-1.05A1.412,1.412,0,0,1,9.05-6.9a1.427,1.427,0,0,1,1.04.43,1.469,1.469,0,0,1,.43,1.08A2.709,2.709,0,0,1,10.13-4c-.13.22-.26.44-.4.64s-.28.4-.41.57c-.22.27-.43.53-.63.77-.09.11-.17.21-.25.31S8.26-1.49,8.18-1.39Zm6.08-3.72v3.78c0,.17,0,.36.01.57s0,.4.01.55H12.93c0-.15.01-.33.02-.55s.01-.4.01-.57V-5.99c0-.16-.01-.34-.01-.56-.01-.2-.02-.39-.02-.56h1.63l2.58,4.82v-3.7c0-.16-.01-.34-.01-.56-.01-.2-.02-.39-.02-.56h1.35c-.01.16-.01.35-.01.56s-.01.41-.01.56v5.4a1.625,1.625,0,0,0,.01.38H16.93Zm7.39,4.9c.02-.28.03-.5.04-.66V-3.1L19.14-7.11h1.49l1.73,2.79,1.7-2.79h1.49l-2.54,4v1.78c0,.16,0,.31.01.46s.01.38.03.66Z" transform="translate(-0.66 7.11)" fill="#0d0d0d"/>
</svg>
