<svg xmlns="http://www.w3.org/2000/svg" width="108.225" height="10.68" viewBox="0 0 108.225 10.68">
  <path id="LOGO" d="M6.555-3.09c.7-2.145,1.275-3.855,1.71-5.145.42-1.275.705-2.085.825-2.43h2.79a5.089,5.089,0,0,0-.03.7c-.015.285-.015.51-.015.69V-1.7c0,.2,0,.42.015.69a4.656,4.656,0,0,0,.03.69H9.84c.015-.225.03-.51.045-.84,0-.315.015-.6.015-.84V-7.38L7.485-.315H5.6L3.15-7.47V-1.7c0,.2,0,.42.015.69a4.656,4.656,0,0,0,.03.69H1.155c.015-.225.03-.51.045-.84,0-.315.015-.6.015-.84v-7.7c-.015-.24-.045-.555-.075-.975H3.975ZM16.065-2v.855a6.668,6.668,0,0,0,.03.825H14.04c.015-.225.03-.495.045-.825V-9.825c-.015-.3-.03-.585-.045-.84h2.055a7.186,7.186,0,0,0-.03.84V-2Zm6.945.03c.21,0,.45,0,.735-.015a5.524,5.524,0,0,0,.735-.045v1.77c-.21-.015-.435-.03-.69-.045-.27,0-.51-.015-.7-.015h-4.95c.015-.225.03-.495.045-.825,0-.315.015-.6.015-.855v-6.99c0-.24-.015-.51-.015-.825q-.022-.45-.045-.855h2.04a7.589,7.589,0,0,0-.03.855c-.015.33-.015.6-.015.825v7.02Zm6.78-7.05V-2c0,.24,0,.465.015.7,0,.24.015.57.045.975H27.765c.015-.24.03-.525.045-.84v-7.86H26.085c-.21,0-.435.015-.69.015-.27.015-.51.03-.7.045v-1.77a5.442,5.442,0,0,0,.75.045c.27.015.51.015.72.015h5.28c.195,0,.435,0,.72-.015a5.76,5.76,0,0,0,.75-.045v1.77c-.21-.015-.435-.03-.7-.045s-.51-.015-.7-.015ZM35.7-5.49a6.687,6.687,0,0,0,.135,1.365A3.187,3.187,0,0,0,36.27-2.94a2.043,2.043,0,0,0,.81.825,2.308,2.308,0,0,0,1.26.315,2.38,2.38,0,0,0,1.26-.315,2.288,2.288,0,0,0,.825-.825,3.815,3.815,0,0,0,.435-1.185,7.969,7.969,0,0,0,.12-1.365,7.1,7.1,0,0,0-.135-1.395,4.061,4.061,0,0,0-.465-1.17,2.657,2.657,0,0,0-.81-.825,2.448,2.448,0,0,0-1.23-.3,2.352,2.352,0,0,0-1.215.3,2.55,2.55,0,0,0-.825.825,3.655,3.655,0,0,0-.45,1.17A6.117,6.117,0,0,0,35.7-5.49Zm-1.965,0a6.807,6.807,0,0,1,.33-2.2,4.951,4.951,0,0,1,.93-1.68,4.392,4.392,0,0,1,1.455-1.08,4.72,4.72,0,0,1,1.89-.375,4.9,4.9,0,0,1,1.9.375,4.659,4.659,0,0,1,1.44,1.08,5.519,5.519,0,0,1,.93,1.68,7.24,7.24,0,0,1,.33,2.2,7.268,7.268,0,0,1-.33,2.22,5.033,5.033,0,0,1-.93,1.68,4.009,4.009,0,0,1-1.44,1.065,4.645,4.645,0,0,1-1.9.375,4.477,4.477,0,0,1-1.89-.375A3.819,3.819,0,0,1,34.995-1.59a4.559,4.559,0,0,1-.93-1.68A6.837,6.837,0,0,1,33.735-5.49ZM46.68-7.665V-2c0,.255,0,.54.015.855,0,.33,0,.6.015.825H44.685c0-.225.015-.495.03-.825,0-.315.015-.6.015-.855v-6.99c0-.24-.015-.51-.015-.84-.015-.3-.03-.585-.03-.84H47.13L51-3.435v-5.55c0-.24-.015-.51-.015-.84-.015-.3-.03-.585-.03-.84H52.98c-.015.24-.015.525-.015.84-.015.33-.015.615-.015.84v8.1a2.438,2.438,0,0,0,.015.57h-2.28ZM65.775-8.22a5.518,5.518,0,0,0-2.97-.96,3.7,3.7,0,0,0-1.455.27,3.392,3.392,0,0,0-1.125.765,3.335,3.335,0,0,0-.72,1.17,3.935,3.935,0,0,0-.255,1.47,3.987,3.987,0,0,0,.27,1.5,2.939,2.939,0,0,0,.735,1.17,3.242,3.242,0,0,0,1.155.765,3.831,3.831,0,0,0,1.47.27c.195,0,.4,0,.63-.015a1.852,1.852,0,0,0,.63-.105V-4.83h-.765c-.21,0-.435.015-.69.015-.27.015-.51.03-.705.045V-6.51a5.549,5.549,0,0,0,.735.03c.27.015.51.015.735.015h2.67c-.015.255-.015.54-.015.855s-.015.6-.015.84V-.66a9.887,9.887,0,0,1-1.35.33,9.792,9.792,0,0,1-2.01.18,5.967,5.967,0,0,1-2.175-.375A4.715,4.715,0,0,1,58.83-1.59a4.574,4.574,0,0,1-1.14-1.68,5.821,5.821,0,0,1-.4-2.235,5.773,5.773,0,0,1,.4-2.2,4.98,4.98,0,0,1,1.14-1.68,5.152,5.152,0,0,1,1.725-1.065,6.3,6.3,0,0,1,2.175-.375,10.555,10.555,0,0,1,1.545.12,12.371,12.371,0,0,1,1.65.465ZM73.14-1.965c.21,0,.45,0,.735-.015a5.524,5.524,0,0,0,.735-.045v1.77c-.21-.015-.435-.03-.69-.045-.27,0-.51-.015-.705-.015h-4.95c.015-.225.03-.495.045-.825,0-.315.015-.6.015-.855v-6.99c0-.24-.015-.51-.015-.825q-.022-.45-.045-.855H70.3a7.59,7.59,0,0,0-.03.855c-.015.33-.015.6-.015.825v7.02Zm8.31-.855H77.61c-.15.4-.285.825-.435,1.26-.165.45-.315.87-.45,1.245H74.67l3.75-10.35h2.22L84.39-.315H82.335Zm-.555-1.605c-.24-.66-.465-1.305-.675-1.95-.24-.63-.465-1.275-.69-1.935L78.15-4.425ZM90.93-8.64q-.72-.247-1.215-.405a4.292,4.292,0,0,0-1.05-.135,4.194,4.194,0,0,0-.6.045,2.828,2.828,0,0,0-.57.18,1.268,1.268,0,0,0-.435.345.838.838,0,0,0-.18.54.774.774,0,0,0,.18.5,1.622,1.622,0,0,0,.435.4,2.4,2.4,0,0,0,.57.345,5.792,5.792,0,0,0,.615.3c.315.15.645.315,1,.5a5.885,5.885,0,0,1,.96.63,3.982,3.982,0,0,1,.705.87,2.572,2.572,0,0,1,.27,1.2,2.9,2.9,0,0,1-.345,1.455,2.687,2.687,0,0,1-.93.99,3.618,3.618,0,0,1-1.35.555,7.247,7.247,0,0,1-1.62.18A4.533,4.533,0,0,1,86.16-.315a9.294,9.294,0,0,1-1.305-.36L85.1-2.43a5.773,5.773,0,0,0,.555.195c.21.075.42.135.66.195a3.271,3.271,0,0,0,.66.165,2.088,2.088,0,0,0,.585.075,3.053,3.053,0,0,0,.705-.075,2.135,2.135,0,0,0,.675-.24,1.5,1.5,0,0,0,.525-.45,1.2,1.2,0,0,0,.195-.675,1.1,1.1,0,0,0-.165-.57,3.182,3.182,0,0,0-.45-.45c-.18-.12-.39-.24-.6-.36a7.062,7.062,0,0,1-.675-.33l-.09-.045a.127.127,0,0,1-.09-.03,8.936,8.936,0,0,1-.915-.48,3.639,3.639,0,0,1-.87-.615,2.465,2.465,0,0,1-.63-.8,1.911,1.911,0,0,1-.255-1.02,2.449,2.449,0,0,1,.3-1.26,2.5,2.5,0,0,1,.78-.9,3.843,3.843,0,0,1,1.17-.555,5.569,5.569,0,0,1,1.44-.18,10.675,10.675,0,0,1,1.245.105,8.794,8.794,0,0,1,1.38.33Zm4.155,6.675H98.19c.195,0,.435,0,.72-.015a5.365,5.365,0,0,0,.735-.045v1.77c-.21-.015-.435-.03-.69-.045-.27,0-.51-.015-.705-.015H93.105c.015-.27.03-.555.045-.84v-7.83c0-.24-.015-.51-.015-.84-.015-.3-.03-.585-.045-.84h5.1c.195,0,.42,0,.69-.015a5.389,5.389,0,0,0,.705-.045v1.77a2.929,2.929,0,0,1-.345-.03A3.263,3.263,0,0,1,98.85-9a3.138,3.138,0,0,1-.39-.015H95.085V-6.5H97.83c.195,0,.42,0,.69-.015a5.389,5.389,0,0,0,.7-.045v1.77c-.21-.015-.435-.03-.69-.045-.27,0-.51-.015-.705-.015H95.085Zm6.285-7.02c0-.24-.015-.51-.015-.84-.015-.3-.03-.585-.045-.84h3.03a13.216,13.216,0,0,1,1.56.09,4.486,4.486,0,0,1,1.335.405,2.59,2.59,0,0,1,.93.87,2.939,2.939,0,0,1,.345,1.485,2.585,2.585,0,0,1-.135.87,2.421,2.421,0,0,1-.39.675,2.286,2.286,0,0,1-.57.51,3.3,3.3,0,0,1-.69.345,2.372,2.372,0,0,1,.7.81l1.935,4.29h-2.19L105.63-3.9v.015a3.921,3.921,0,0,0-.3-.48A2.187,2.187,0,0,0,105-4.62a3.257,3.257,0,0,0-.36-.105c-.15,0-.3-.015-.45-.015h-.885V-2c0,.255,0,.54.015.855a6.669,6.669,0,0,0,.03.825h-2.04c.015-.225.03-.495.045-.825,0-.315.015-.6.015-.855Zm1.935,2.6h1.32a2.52,2.52,0,0,0,1.38-.36,1.169,1.169,0,0,0,.54-1.065,1.1,1.1,0,0,0-.435-.915,2.361,2.361,0,0,0-1.35-.315h-1.455Z" transform="translate(-1.14 10.83)" fill="#0d0d0d"/>
</svg>
