<svg xmlns="http://www.w3.org/2000/svg" width="36.01" height="7.12" viewBox="0 0 36.01 7.12">
  <path id="PROFILE" d="M.75-5.99c0-.16-.01-.34-.01-.56-.01-.2-.02-.39-.03-.56H2.82a5.914,5.914,0,0,1,1.04.1,2.793,2.793,0,0,1,.89.34,1.842,1.842,0,0,1,.62.65A2.148,2.148,0,0,1,5.6-4.99a1.961,1.961,0,0,1-.24,1.01,1.911,1.911,0,0,1-.61.65,2.355,2.355,0,0,1-.85.35,3.883,3.883,0,0,1-.94.11H2.04v1.54c0,.17,0,.36.01.57a4.446,4.446,0,0,0,.02.55H.71C.72-.36.73-.54.74-.76s.01-.4.01-.57ZM2.04-3.95H3.06a1.649,1.649,0,0,0,.43-.06,1.18,1.18,0,0,0,.4-.17,1,1,0,0,0,.29-.32,1.015,1.015,0,0,0,.11-.49,1.014,1.014,0,0,0-.13-.51,1.286,1.286,0,0,0-.34-.32,1.742,1.742,0,0,0-.45-.17,4.094,4.094,0,0,0-.46-.04H2.04ZM6.46-5.99c0-.16-.01-.34-.01-.56-.01-.2-.02-.39-.03-.56H8.44a8.811,8.811,0,0,1,1.04.06,2.991,2.991,0,0,1,.89.27,1.726,1.726,0,0,1,.62.58,1.959,1.959,0,0,1,.23.99,1.723,1.723,0,0,1-.09.58,1.614,1.614,0,0,1-.26.45,1.524,1.524,0,0,1-.38.34,2.2,2.2,0,0,1-.46.23,1.581,1.581,0,0,1,.47.54L11.79-.21H10.33L9.3-2.6v.01a2.614,2.614,0,0,0-.2-.32,1.458,1.458,0,0,0-.22-.17,2.172,2.172,0,0,0-.24-.07c-.1,0-.2-.01-.3-.01H7.75v1.83c0,.17,0,.36.01.57a4.446,4.446,0,0,0,.02.55H6.42c.01-.15.02-.33.03-.55s.01-.4.01-.57ZM7.75-4.26h.88a1.68,1.68,0,0,0,.92-.24.78.78,0,0,0,.36-.71.736.736,0,0,0-.29-.61,1.574,1.574,0,0,0-.9-.21H7.75Zm5.8.6a4.458,4.458,0,0,0,.09.91,2.125,2.125,0,0,0,.29.79,1.362,1.362,0,0,0,.54.55,1.539,1.539,0,0,0,.84.21,1.587,1.587,0,0,0,.84-.21,1.526,1.526,0,0,0,.55-.55,2.543,2.543,0,0,0,.29-.79,5.313,5.313,0,0,0,.08-.91,4.731,4.731,0,0,0-.09-.93,2.707,2.707,0,0,0-.31-.78,1.772,1.772,0,0,0-.54-.55,1.632,1.632,0,0,0-.82-.2,1.568,1.568,0,0,0-.81.2,1.7,1.7,0,0,0-.55.55,2.436,2.436,0,0,0-.3.78A4.078,4.078,0,0,0,13.55-3.66Zm-1.31,0a4.538,4.538,0,0,1,.22-1.47,3.3,3.3,0,0,1,.62-1.12,2.928,2.928,0,0,1,.97-.72,3.146,3.146,0,0,1,1.26-.25,3.269,3.269,0,0,1,1.27.25,3.106,3.106,0,0,1,.96.72,3.679,3.679,0,0,1,.62,1.12,4.827,4.827,0,0,1,.22,1.47,4.845,4.845,0,0,1-.22,1.48,3.355,3.355,0,0,1-.62,1.12,2.673,2.673,0,0,1-.96.71,3.1,3.1,0,0,1-1.27.25,2.985,2.985,0,0,1-1.26-.25,2.546,2.546,0,0,1-.97-.71,3.04,3.04,0,0,1-.62-1.12A4.558,4.558,0,0,1,12.24-3.66Zm7.3-2.33c0-.16-.01-.34-.01-.56-.01-.2-.02-.39-.03-.56h3.3c.13,0,.28,0,.46-.01a3.593,3.593,0,0,0,.47-.03v1.18c-.14-.01-.3-.02-.49-.03s-.36-.01-.49-.01H20.83v1.67h1.78c.13,0,.28,0,.46-.01a3.618,3.618,0,0,0,.47-.02V-3.2c-.14,0-.29-.01-.46-.02s-.34-.01-.47-.01H20.83v1.9c0,.17,0,.36.01.56a4.7,4.7,0,0,0,.02.56H19.5c.01-.16.02-.34.03-.56,0-.2.01-.39.01-.56Zm6.48,4.66v.57a4.446,4.446,0,0,0,.02.55H24.67c.01-.15.02-.33.03-.55V-6.55c-.01-.2-.02-.39-.03-.56h1.37a4.791,4.791,0,0,0-.02.56v5.22Zm4.63.02c.14,0,.3,0,.49-.01a3.683,3.683,0,0,0,.49-.03V-.17c-.14-.01-.29-.02-.46-.03s-.34-.01-.47-.01H27.4c.01-.15.02-.33.03-.55s.01-.4.01-.57V-5.99c0-.16-.01-.34-.01-.55s-.02-.39-.03-.57h1.36a5.06,5.06,0,0,0-.02.57c-.01.22-.01.4-.01.55v4.68Zm3.03,0h2.07c.13,0,.29,0,.48-.01a3.577,3.577,0,0,0,.49-.03V-.17c-.14-.01-.29-.02-.46-.03s-.34-.01-.47-.01H32.36c.01-.18.02-.37.03-.56V-5.99c0-.16-.01-.34-.01-.56-.01-.2-.02-.39-.03-.56h3.4c.13,0,.28,0,.46-.01a3.593,3.593,0,0,0,.47-.03v1.18a1.953,1.953,0,0,1-.23-.02A2.175,2.175,0,0,1,36.19-6a2.092,2.092,0,0,1-.26-.01H33.68v1.68h1.83c.13,0,.28,0,.46-.01a3.593,3.593,0,0,0,.47-.03v1.18c-.14-.01-.29-.02-.46-.03s-.34-.01-.47-.01H33.68Z" transform="translate(-0.71 7.22)" fill="#0d0d0d" opacity="0.6"/>
</svg>
