<svg xmlns="http://www.w3.org/2000/svg" xmlns:xlink="http://www.w3.org/1999/xlink" width="1200" height="313" viewBox="0 0 1200 313">
  <defs>
    <clipPath id="clip-path">
      <rect id="사각형_120" data-name="사각형 120" width="1200" height="313" transform="translate(360 45)" fill="#fff"/>
    </clipPath>
  </defs>
  <g id="sub01-01" transform="translate(-360 -45)" clip-path="url(#clip-path)">
    <g id="그룹_25" data-name="그룹 25">
      <path id="패스_28" data-name="패스 28" d="M18.75-149.75c0-4-.25-8.5-.25-14-.25-5-.5-9.75-.75-14H70.5a147.855,147.855,0,0,1,26,2.5,69.826,69.826,0,0,1,22.25,8.5,46.038,46.038,0,0,1,15.5,16.25c3.75,7,5.75,15.5,5.75,25.75,0,10-2,18.5-6,25.25a47.769,47.769,0,0,1-15.25,16.25A58.881,58.881,0,0,1,97.5-74.5,97.081,97.081,0,0,1,74-71.75H51v38.5c0,4.25,0,9,.25,14.25a111.143,111.143,0,0,0,.5,13.75h-34C18-9,18.25-13.5,18.5-19c0-5.25.25-10,.25-14.25ZM51-98.75H76.5a41.234,41.234,0,0,0,10.75-1.5,29.491,29.491,0,0,0,10-4.25,25.108,25.108,0,0,0,7.25-8,25.369,25.369,0,0,0,2.75-12.25A25.358,25.358,0,0,0,104-137.5a32.142,32.142,0,0,0-8.5-8,43.553,43.553,0,0,0-11.25-4.25,102.358,102.358,0,0,0-11.5-1H51Zm110.5-51c0-4-.25-8.5-.25-14-.25-5-.5-9.75-.75-14H211a220.267,220.267,0,0,1,26,1.5,74.77,74.77,0,0,1,22.25,6.75,43.159,43.159,0,0,1,15.5,14.5c3.75,6.5,5.75,14.75,5.75,24.75a43.078,43.078,0,0,1-2.25,14.5,40.349,40.349,0,0,1-6.5,11.25,38.094,38.094,0,0,1-9.5,8.5,54.942,54.942,0,0,1-11.5,5.75c4.5,3,8.25,7.5,11.75,13.5l32.25,71.5h-36.5L232.5-65v.25a65.346,65.346,0,0,0-5-8A36.451,36.451,0,0,0,222-77a54.3,54.3,0,0,0-6-1.75c-2.5,0-5-.25-7.5-.25H193.75v45.75c0,4.25,0,9,.25,14.25a111.143,111.143,0,0,0,.5,13.75h-34c.25-3.75.5-8.25.75-13.75,0-5.25.25-10,.25-14.25Zm32.25,43.25h22c9,0,16.75-2,23-6,6-3.75,9-9.75,9-17.75a18.393,18.393,0,0,0-7.25-15.25q-7.5-5.25-22.5-5.25H193.75Zm145,15A111.457,111.457,0,0,0,341-68.75,53.113,53.113,0,0,0,348.25-49a34.05,34.05,0,0,0,13.5,13.75Q370-30,382.75-30q12.375,0,21-5.25A38.141,38.141,0,0,0,417.5-49a63.576,63.576,0,0,0,7.25-19.75,132.812,132.812,0,0,0,2-22.75,118.284,118.284,0,0,0-2.25-23.25,67.679,67.679,0,0,0-7.75-19.5A44.292,44.292,0,0,0,403.25-148a40.808,40.808,0,0,0-20.5-5c-8,0-14.75,1.75-20.25,5a42.5,42.5,0,0,0-13.75,13.75,60.91,60.91,0,0,0-7.5,19.5A101.959,101.959,0,0,0,338.75-91.5ZM306-91.5c0-13.5,1.75-25.75,5.5-36.75a82.523,82.523,0,0,1,15.5-28,73.208,73.208,0,0,1,24.25-18,78.661,78.661,0,0,1,31.5-6.25,81.714,81.714,0,0,1,31.75,6.25,77.652,77.652,0,0,1,24,18,91.984,91.984,0,0,1,15.5,28,120.662,120.662,0,0,1,5.5,36.75,121.128,121.128,0,0,1-5.5,37,83.885,83.885,0,0,1-15.5,28,66.824,66.824,0,0,1-24,17.75C405-4.5,394.25-2.5,382.75-2.5c-11.75,0-22.25-2-31.5-6.25A63.642,63.642,0,0,1,327-26.5a75.988,75.988,0,0,1-15.5-28C307.75-65.5,306-77.75,306-91.5Zm182.5-58.25c0-4-.25-8.5-.25-14-.25-5-.5-9.75-.75-14H570c3.25,0,7,0,11.5-.25a89.82,89.82,0,0,0,11.75-.75v29.5c-3.5-.25-7.5-.5-12.25-.75-5,0-9-.25-12.25-.25h-48v41.75h44.5c3.25,0,7,0,11.5-.25a90.447,90.447,0,0,0,11.75-.5V-80c-3.5,0-7.25-.25-11.5-.5-4.5,0-8.5-.25-11.75-.25h-44.5v47.5c0,4.25,0,9,.25,14a117.609,117.609,0,0,0,.5,14h-34c.25-4,.5-8.5.75-14,0-5,.25-9.75.25-14Zm162,116.5V-19A111.143,111.143,0,0,0,651-5.25H616.75c.25-3.75.5-8.25.75-13.75V-163.75c-.25-5-.5-9.75-.75-14H651a119.766,119.766,0,0,0-.5,14v130.5Zm115.75.5c3.5,0,7.5,0,12.25-.25a92.068,92.068,0,0,0,12.25-.75v29.5c-3.5-.25-7.25-.5-11.5-.75-4.5,0-8.5-.25-11.75-.25H685c.25-3.75.5-8.25.75-13.75,0-5.25.25-10,.25-14.25v-116.5c0-4-.25-8.5-.25-13.75q-.375-7.5-.75-14.25h34a126.494,126.494,0,0,0-.5,14.25c-.25,5.5-.25,10-.25,13.75v117Zm75.75,0h51.75c3.25,0,7.25,0,12-.25A89.422,89.422,0,0,0,918-33.75v29.5c-3.5-.25-7.25-.5-11.5-.75-4.5,0-8.5-.25-11.75-.25H809c.25-4.5.5-9.25.75-14v-130.5c0-4-.25-8.5-.25-14-.25-5-.5-9.75-.75-14h85c3.25,0,7,0,11.5-.25a89.82,89.82,0,0,0,11.75-.75v29.5a48.813,48.813,0,0,1-5.75-.5,54.378,54.378,0,0,1-6.5-.25,52.309,52.309,0,0,1-6.5-.25H842v42h45.75c3.25,0,7,0,11.5-.25a89.821,89.821,0,0,0,11.75-.75v29.5c-3.5-.25-7.25-.5-11.5-.75-4.5,0-8.5-.25-11.75-.25H842Z" transform="translate(496 368)" fill="#0d0d0d" opacity="0.1"/>
      <path id="패스_26" data-name="패스 26" d="M2.25-17.97c0-.48-.03-1.02-.03-1.68-.03-.6-.06-1.17-.09-1.68H8.46a17.742,17.742,0,0,1,3.12.3,8.379,8.379,0,0,1,2.67,1.02,5.525,5.525,0,0,1,1.86,1.95,6.445,6.445,0,0,1,.69,3.09,5.884,5.884,0,0,1-.72,3.03,5.732,5.732,0,0,1-1.83,1.95A7.066,7.066,0,0,1,11.7-8.94a11.65,11.65,0,0,1-2.82.33H6.12v4.62c0,.51,0,1.08.03,1.71A13.337,13.337,0,0,0,6.21-.63H2.13c.03-.45.06-.99.09-1.65,0-.63.03-1.2.03-1.71Zm3.87,6.12H9.18a4.948,4.948,0,0,0,1.29-.18,3.539,3.539,0,0,0,1.2-.51,3.013,3.013,0,0,0,.87-.96,3.044,3.044,0,0,0,.33-1.47,3.043,3.043,0,0,0-.39-1.53,3.857,3.857,0,0,0-1.02-.96,5.226,5.226,0,0,0-1.35-.51,12.283,12.283,0,0,0-1.38-.12H6.12Zm13.26-6.12c0-.48-.03-1.02-.03-1.68-.03-.6-.06-1.17-.09-1.68h6.06a26.432,26.432,0,0,1,3.12.18,8.972,8.972,0,0,1,2.67.81,5.179,5.179,0,0,1,1.86,1.74,5.878,5.878,0,0,1,.69,2.97,5.169,5.169,0,0,1-.27,1.74,4.842,4.842,0,0,1-.78,1.35,4.571,4.571,0,0,1-1.14,1.02,6.593,6.593,0,0,1-1.38.69A4.744,4.744,0,0,1,31.5-9.21L35.37-.63H30.99L27.9-7.8v.03a7.842,7.842,0,0,0-.6-.96,4.374,4.374,0,0,0-.66-.51,6.515,6.515,0,0,0-.72-.21c-.3,0-.6-.03-.9-.03H23.25v5.49c0,.51,0,1.08.03,1.71a13.337,13.337,0,0,0,.06,1.65H19.26c.03-.45.06-.99.09-1.65,0-.63.03-1.2.03-1.71Zm3.87,5.19h2.64a5.041,5.041,0,0,0,2.76-.72,2.339,2.339,0,0,0,1.08-2.13,2.207,2.207,0,0,0-.87-1.83,4.722,4.722,0,0,0-2.7-.63H23.25Zm17.4,1.8a13.375,13.375,0,0,0,.27,2.73,6.374,6.374,0,0,0,.87,2.37,4.086,4.086,0,0,0,1.62,1.65,4.616,4.616,0,0,0,2.52.63,4.76,4.76,0,0,0,2.52-.63A4.577,4.577,0,0,0,50.1-5.88a7.629,7.629,0,0,0,.87-2.37,15.937,15.937,0,0,0,.24-2.73,14.194,14.194,0,0,0-.27-2.79,8.122,8.122,0,0,0-.93-2.34,5.315,5.315,0,0,0-1.62-1.65,4.9,4.9,0,0,0-2.46-.6,4.7,4.7,0,0,0-2.43.6,5.1,5.1,0,0,0-1.65,1.65,7.309,7.309,0,0,0-.9,2.34A12.235,12.235,0,0,0,40.65-10.98Zm-3.93,0a13.613,13.613,0,0,1,.66-4.41,9.9,9.9,0,0,1,1.86-3.36,8.785,8.785,0,0,1,2.91-2.16,9.439,9.439,0,0,1,3.78-.75,9.806,9.806,0,0,1,3.81.75,9.318,9.318,0,0,1,2.88,2.16,11.038,11.038,0,0,1,1.86,3.36,14.48,14.48,0,0,1,.66,4.41,14.535,14.535,0,0,1-.66,4.44,10.066,10.066,0,0,1-1.86,3.36,8.019,8.019,0,0,1-2.88,2.13,9.289,9.289,0,0,1-3.81.75,8.954,8.954,0,0,1-3.78-.75,7.637,7.637,0,0,1-2.91-2.13,9.119,9.119,0,0,1-1.86-3.36A13.673,13.673,0,0,1,36.72-10.98Zm21.9-6.99c0-.48-.03-1.02-.03-1.68-.03-.6-.06-1.17-.09-1.68h9.9c.39,0,.84,0,1.38-.03a10.779,10.779,0,0,0,1.41-.09v3.54c-.42-.03-.9-.06-1.47-.09-.6,0-1.08-.03-1.47-.03H62.49v5.01h5.34c.39,0,.84,0,1.38-.03a10.854,10.854,0,0,0,1.41-.06V-9.6c-.42,0-.87-.03-1.38-.06-.54,0-1.02-.03-1.41-.03H62.49v5.7c0,.51,0,1.08.03,1.68a14.113,14.113,0,0,0,.06,1.68H58.5c.03-.48.06-1.02.09-1.68,0-.6.03-1.17.03-1.68ZM78.06-3.99v1.71a13.338,13.338,0,0,0,.06,1.65H74.01c.03-.45.06-.99.09-1.65V-19.65c-.03-.6-.06-1.17-.09-1.68h4.11a14.373,14.373,0,0,0-.06,1.68V-3.99Zm13.89.06c.42,0,.9,0,1.47-.03a11.048,11.048,0,0,0,1.47-.09V-.51c-.42-.03-.87-.06-1.38-.09-.54,0-1.02-.03-1.41-.03H82.2c.03-.45.06-.99.09-1.65,0-.63.03-1.2.03-1.71V-17.97c0-.48-.03-1.02-.03-1.65q-.045-.9-.09-1.71h4.08a15.18,15.18,0,0,0-.06,1.71c-.03.66-.03,1.2-.03,1.65V-3.93Zm9.09,0h6.21c.39,0,.87,0,1.44-.03a10.731,10.731,0,0,0,1.47-.09V-.51c-.42-.03-.87-.06-1.38-.09-.54,0-1.02-.03-1.41-.03H97.08c.03-.54.06-1.11.09-1.68V-17.97c0-.48-.03-1.02-.03-1.68-.03-.6-.06-1.17-.09-1.68h10.2c.39,0,.84,0,1.38-.03a10.778,10.778,0,0,0,1.41-.09v3.54a5.858,5.858,0,0,1-.69-.06,6.525,6.525,0,0,1-.78-.03,6.277,6.277,0,0,1-.78-.03h-6.75v5.04h5.49c.39,0,.84,0,1.38-.03a10.778,10.778,0,0,0,1.41-.09v3.54c-.42-.03-.87-.06-1.38-.09-.54,0-1.02-.03-1.41-.03h-5.49Z" transform="translate(1221 239)" fill="#0d0d0d"/>
      <path id="패스_27" data-name="패스 27" d="M5.1-18.75H4.35a7.355,7.355,0,0,0-.81.06v-3.72a4.541,4.541,0,0,0,.9.06H25.35a4.7,4.7,0,0,0,.87-.06v3.72c-.3-.03-.57-.06-.81-.06h-3v6.69h3.33a4.267,4.267,0,0,0,.81-.06V-8.7c-.39-.03-.72-.06-1.02-.06H4.17a9.085,9.085,0,0,0-.93.06v-3.42a4.246,4.246,0,0,0,.87.06h3v-6.69ZM25.74-3.42a11.928,11.928,0,0,1,1.71.12,2.142,2.142,0,0,1,.93.51,2.551,2.551,0,0,1,.36,1.05,13.162,13.162,0,0,1,.09,1.68c-.45,0-.84-.03-1.2-.06H3.93A7.249,7.249,0,0,1,2.34-.24a1.3,1.3,0,0,1-.9-.45,1.372,1.372,0,0,1-.39-.99,13.607,13.607,0,0,1-.09-1.8c.42.03.84.03,1.2.03.33.03.69.03,1.08.03ZM11.58-18.75v6.69h6.87v-6.69ZM33.75.18A10.524,10.524,0,0,1,32.16.09a1.446,1.446,0,0,1-.9-.48,1.372,1.372,0,0,1-.39-.99,13.607,13.607,0,0,1-.09-1.8c.42.03.84.03,1.2.03.33.03.69.03,1.08.03h9.51V-7.26H34.35v-9.45h16.2v-2.64H35.34c-.33,0-.66.03-.99.06v-3.42a5.323,5.323,0,0,0,.96.06h19.5a5,5,0,0,0-.06.93v8.31H38.55v2.85H54.3a8.861,8.861,0,0,0,1.26-.06V-7.2c-.42-.03-.84-.06-1.26-.06H46.86v4.14h8.7A11.928,11.928,0,0,1,57.27-3a2.142,2.142,0,0,1,.93.51,2.551,2.551,0,0,1,.36,1.05A13.162,13.162,0,0,1,58.65.24c-.45-.03-.84-.03-1.2-.03-.36-.03-.72-.03-1.08-.03ZM66.27-5.07h15.6V-6.48H67.41c-.42,0-.78.03-1.14.06V-9.54a6.7,6.7,0,0,0,1.11.06H86.25c-.06.9-.09,1.86-.09,2.82v4.5H70.5V-.72H85.17a7.073,7.073,0,0,0,1.11-.06V2.37a7.453,7.453,0,0,0-1.14-.06H66.27Zm-2.94-6.18h-.87c-.3,0-.6.03-.9.06v-3.45a4.246,4.246,0,0,0,.87.06h1.98l-.21-4.95H62.37a7.356,7.356,0,0,0-.81.06v-3.42a4.541,4.541,0,0,0,.9.06H78.63a5,5,0,0,0,.93-.06v3.42a6.857,6.857,0,0,0-.75-.06H77.07l-.21,4.62c.81-.09,1.56-.18,2.22-.3.63-.06,1.11-.15,1.44-.21v3.27c-.84.18-1.71.3-2.64.42-.96.12-1.89.21-2.85.27-.99.09-1.95.15-2.91.15-.96.06-1.89.06-2.76.06Zm22.83-1.98V-12a7.844,7.844,0,0,0,.06,1.2H81.87a7.786,7.786,0,0,0,.09-1.2v-9.84c-.03-.45-.06-.87-.06-1.29-.03-.39-.06-.69-.06-.87h2.4a2.086,2.086,0,0,1,1.5.48,1.968,1.968,0,0,1,.42,1.23ZM72.84-14.61v-4.92h-4.2v4.92Z" transform="translate(1243 276)" fill="#0d0d0d"/>
    </g>
  </g>
</svg>
