<svg xmlns="http://www.w3.org/2000/svg" xmlns:xlink="http://www.w3.org/1999/xlink" width="1200" height="313" viewBox="0 0 1200 313">
  <defs>
    <clipPath id="clip-path">
      <rect id="사각형_122" data-name="사각형 122" width="1200" height="313" transform="translate(360 45)" fill="#fff"/>
    </clipPath>
  </defs>
  <g id="sub02-01" transform="translate(-360 -45)" clip-path="url(#clip-path)">
    <path id="패스_40" data-name="패스 40" d="M10.3-25.55v18.9c0,.85,0,1.8.05,2.85,0,1.1,0,2,.05,2.75H3.65c0-.75.05-1.65.1-2.75,0-1.05.05-2,.05-2.85v-23.3c0-.8-.05-1.7-.05-2.8-.05-1-.1-1.95-.1-2.8H11.8l12.9,24.1v-18.5c0-.8-.05-1.7-.05-2.8-.05-1-.1-1.95-.1-2.8H31.3c-.05.8-.05,1.75-.05,2.8-.05,1.1-.05,2.05-.05,2.8v27a8.126,8.126,0,0,0,.05,1.9h-7.6Zm34.8,19H55.45c.65,0,1.45,0,2.4-.05a17.884,17.884,0,0,0,2.45-.15v5.9C59.6-.9,58.85-.95,58-1c-.9,0-1.7-.05-2.35-.05H38.5c.05-.9.1-1.85.15-2.8v-26.1c0-.8-.05-1.7-.05-2.8-.05-1-.1-1.95-.15-2.8h17c.65,0,1.4,0,2.3-.05a17.964,17.964,0,0,0,2.35-.15v5.9a9.762,9.762,0,0,1-1.15-.1,10.875,10.875,0,0,1-1.3-.05,10.462,10.462,0,0,1-1.3-.05H45.1v8.4h9.15c.65,0,1.4,0,2.3-.05a17.964,17.964,0,0,0,2.35-.15v5.9c-.7-.05-1.45-.1-2.3-.15-.9,0-1.7-.05-2.35-.05H45.1Zm47.05-2.7,7.15-26.3h7.05L96.3-1.05H88.4L84.5-13.9,80.6-1.05H72.7L62.65-35.55h7.1l7.1,26.3,4.3-15.5L77.9-35.55h6.9Zm35.35,8.2c.1-1.4.15-2.5.2-3.3V-15.5L114.95-35.55h7.45l8.65,13.95,8.5-13.95H147l-12.7,20v8.9c0,.8,0,1.55.05,2.3q0,1.2.15,3.3ZM155.45-18.3a22.292,22.292,0,0,0,.45,4.55,10.622,10.622,0,0,0,1.45,3.95,6.81,6.81,0,0,0,2.7,2.75A7.694,7.694,0,0,0,164.25-6a7.933,7.933,0,0,0,4.2-1.05A7.628,7.628,0,0,0,171.2-9.8a12.715,12.715,0,0,0,1.45-3.95,26.562,26.562,0,0,0,.4-4.55,23.656,23.656,0,0,0-.45-4.65,13.536,13.536,0,0,0-1.55-3.9,8.858,8.858,0,0,0-2.7-2.75,8.162,8.162,0,0,0-4.1-1,7.84,7.84,0,0,0-4.05,1,8.5,8.5,0,0,0-2.75,2.75,12.182,12.182,0,0,0-1.5,3.9A20.392,20.392,0,0,0,155.45-18.3Zm-6.55,0a22.689,22.689,0,0,1,1.1-7.35,16.5,16.5,0,0,1,3.1-5.6,14.642,14.642,0,0,1,4.85-3.6,15.732,15.732,0,0,1,6.3-1.25,16.343,16.343,0,0,1,6.35,1.25,15.53,15.53,0,0,1,4.8,3.6,18.4,18.4,0,0,1,3.1,5.6,24.133,24.133,0,0,1,1.1,7.35,24.226,24.226,0,0,1-1.1,7.4,16.777,16.777,0,0,1-3.1,5.6,13.365,13.365,0,0,1-4.8,3.55A15.482,15.482,0,0,1,164.25-.5a14.923,14.923,0,0,1-6.3-1.25A12.728,12.728,0,0,1,153.1-5.3a15.2,15.2,0,0,1-3.1-5.6A22.789,22.789,0,0,1,148.9-18.3Zm36.65-11.65c0-.8-.05-1.7-.05-2.8-.05-1-.1-1.95-.15-2.8h10.1a44.054,44.054,0,0,1,5.2.3,14.954,14.954,0,0,1,4.45,1.35,8.632,8.632,0,0,1,3.1,2.9,9.8,9.8,0,0,1,1.15,4.95,8.615,8.615,0,0,1-.45,2.9,8.069,8.069,0,0,1-1.3,2.25,7.619,7.619,0,0,1-1.9,1.7,10.988,10.988,0,0,1-2.3,1.15,7.907,7.907,0,0,1,2.35,2.7l6.45,14.3h-7.3L199.75-13v.05a13.07,13.07,0,0,0-1-1.6,7.29,7.29,0,0,0-1.1-.85,10.858,10.858,0,0,0-1.2-.35c-.5,0-1-.05-1.5-.05H192v9.15c0,.85,0,1.8.05,2.85a22.231,22.231,0,0,0,.1,2.75h-6.8c.05-.75.1-1.65.15-2.75,0-1.05.05-2,.05-2.85ZM192-21.3h4.4a8.4,8.4,0,0,0,4.6-1.2,3.9,3.9,0,0,0,1.8-3.55,3.679,3.679,0,0,0-1.45-3.05,7.87,7.87,0,0,0-4.5-1.05H192ZM222.6-5.65c0,.65,0,1.4.05,2.3a15.521,15.521,0,0,0,.1,2.3h-6.8c.05-.75.1-1.7.15-2.8,0-1.05.05-2,.05-2.8V-32.3c-.05-.8-.15-1.85-.25-3.25h6.85a16.967,16.967,0,0,0-.1,2.35c-.05.95-.05,1.7-.05,2.3v8.6l12.9-13.25h8.15L227.7-19.25l17.45,18.2H236.7l-14.1-15ZM247-6.5h7.1L249.15,5.4h-5.5Zm28.9,5.45c.05-1.25.1-2.3.1-3.15V-27.6l-4.25,3.9-3.55-4.7,8.95-7.15h5.6a23.952,23.952,0,0,0-.1,2.8c-.05,1.1-.05,2.05-.05,2.8V-3.8a22.227,22.227,0,0,0,.1,2.75Zm18.8-6.8a20.064,20.064,0,0,0,3.75,1.45,11.44,11.44,0,0,0,3.5.6,6.7,6.7,0,0,0,3.2-.7,7.379,7.379,0,0,0,2.4-1.95,9.766,9.766,0,0,0,1.6-2.95,16.106,16.106,0,0,0,.8-3.7,11.883,11.883,0,0,1-6.4,1.85,11.436,11.436,0,0,1-4.7-.85,9.8,9.8,0,0,1-3.55-2.35A9.263,9.263,0,0,1,293.1-20a11.74,11.74,0,0,1-.8-4.45,11.9,11.9,0,0,1,.95-4.9,10.336,10.336,0,0,1,2.5-3.65,10.751,10.751,0,0,1,3.8-2.3,13.738,13.738,0,0,1,4.65-.8,13.332,13.332,0,0,1,6.4,1.4,10.9,10.9,0,0,1,3.75,3.8,16.541,16.541,0,0,1,1.75,5.3,41.23,41.23,0,0,1,.45,6.1,39.472,39.472,0,0,1-.65,6.95,17.522,17.522,0,0,1-2.3,6.05,13.076,13.076,0,0,1-4.4,4.35A13.877,13.877,0,0,1,302.15-.5a15.115,15.115,0,0,1-2-.15,20.022,20.022,0,0,1-2.4-.4c-.8-.15-1.55-.35-2.25-.55a7.03,7.03,0,0,1-1.7-.5Zm4.15-16.65a6.172,6.172,0,0,0,.35,2.1,5.229,5.229,0,0,0,.95,1.9,3.667,3.667,0,0,0,1.65,1.35,4.424,4.424,0,0,0,2.35.55,5.151,5.151,0,0,0,2.3-.5,5.359,5.359,0,0,0,1.75-1.25,6.332,6.332,0,0,0,1.1-1.9,8.15,8.15,0,0,0,.35-2.25,9.377,9.377,0,0,0-.3-2.3,9.349,9.349,0,0,0-1-2,6.29,6.29,0,0,0-1.6-1.45,4.985,4.985,0,0,0-2.25-.55,6.106,6.106,0,0,0-2.45.5,5.548,5.548,0,0,0-1.75,1.45,5.64,5.64,0,0,0-1.1,2A7.655,7.655,0,0,0,298.85-24.5Zm44.1-6.55-13,30h-7L335.9-30.3h-14c-.9.05-1.7.1-2.35.15v-5.6a18.139,18.139,0,0,0,2.5.15c.9.05,1.7.05,2.4.05h18.5Zm5.05-4.5h15.3c.7,0,1.5,0,2.45-.05.9,0,1.75-.05,2.45-.1v5.6c-.7-.05-1.45-.1-2.3-.15-.9,0-1.7-.05-2.35-.05H354.2c-.1,1.75-.2,3.1-.2,4q-.15,1.5-.15,2.1a8.006,8.006,0,0,0-.05.85.875.875,0,0,0-.05.25c.5-.05,1-.1,1.6-.15.55,0,1.15-.05,1.8-.05a14.79,14.79,0,0,1,4.75.8,13.767,13.767,0,0,1,3.8,2.3,12.6,12.6,0,0,1,2.55,3.5,10.588,10.588,0,0,1,.9,4.35,11.611,11.611,0,0,1-1.05,5.1,11.569,11.569,0,0,1-2.95,3.75,13.338,13.338,0,0,1-4.45,2.25,19.4,19.4,0,0,1-5.45.75,25.813,25.813,0,0,1-5-.45,21.436,21.436,0,0,1-3.45-.85l.25-6.3a14.743,14.743,0,0,0,4.2,1.8,13.313,13.313,0,0,0,3.75.5,11.236,11.236,0,0,0,2.9-.35,6.508,6.508,0,0,0,2.4-1.05A5.341,5.341,0,0,0,362-9a5.328,5.328,0,0,0,.6-2.65,7.916,7.916,0,0,0-.55-3.05,5.223,5.223,0,0,0-1.65-1.95,7.6,7.6,0,0,0-2.5-1.1,16.034,16.034,0,0,0-3.15-.3,19.218,19.218,0,0,0-3.8.4,13.783,13.783,0,0,0-3.7,1.4Z" transform="translate(498 235)" fill="#fff"/>
    <path id="패스_41" data-name="패스 41" d="M10.05-6.65V-3.8a22.229,22.229,0,0,0,.1,2.75H3.3c.05-.75.1-1.65.15-2.75V-32.75c-.05-1-.1-1.95-.15-2.8h6.85a23.953,23.953,0,0,0-.1,2.8v26.1Zm31.65.1c.7,0,1.5,0,2.45-.05a18.413,18.413,0,0,0,2.45-.15v5.9c-.7-.05-1.45-.1-2.3-.15-.9,0-1.7-.05-2.35-.05H25.45c.05-.75.1-1.65.15-2.75,0-1.05.05-2,.05-2.85v-23.3c0-.8-.05-1.7-.05-2.75q-.075-1.5-.15-2.85h6.8a25.3,25.3,0,0,0-.1,2.85c-.05,1.1-.05,2-.05,2.75v23.4ZM55.45-18.3a22.291,22.291,0,0,0,.45,4.55A10.623,10.623,0,0,0,57.35-9.8a6.81,6.81,0,0,0,2.7,2.75A7.694,7.694,0,0,0,64.25-6a7.933,7.933,0,0,0,4.2-1.05A7.628,7.628,0,0,0,71.2-9.8a12.715,12.715,0,0,0,1.45-3.95,26.562,26.562,0,0,0,.4-4.55,23.656,23.656,0,0,0-.45-4.65,13.536,13.536,0,0,0-1.55-3.9,8.858,8.858,0,0,0-2.7-2.75,8.162,8.162,0,0,0-4.1-1,7.84,7.84,0,0,0-4.05,1,8.5,8.5,0,0,0-2.75,2.75,12.182,12.182,0,0,0-1.5,3.9A20.392,20.392,0,0,0,55.45-18.3Zm-6.55,0A22.689,22.689,0,0,1,50-25.65a16.5,16.5,0,0,1,3.1-5.6,14.642,14.642,0,0,1,4.85-3.6,15.732,15.732,0,0,1,6.3-1.25,16.343,16.343,0,0,1,6.35,1.25,15.53,15.53,0,0,1,4.8,3.6,18.4,18.4,0,0,1,3.1,5.6,24.133,24.133,0,0,1,1.1,7.35,24.226,24.226,0,0,1-1.1,7.4,16.777,16.777,0,0,1-3.1,5.6,13.365,13.365,0,0,1-4.8,3.55A15.482,15.482,0,0,1,64.25-.5a14.923,14.923,0,0,1-6.3-1.25A12.728,12.728,0,0,1,53.1-5.3,15.2,15.2,0,0,1,50-10.9,22.789,22.789,0,0,1,48.9-18.3ZM88.85-35.55,97.55-9l8.7-26.55h6.9L101.3-1.05H93.7L81.8-35.55Zm34.5,29H133.7c.65,0,1.45,0,2.4-.05a17.884,17.884,0,0,0,2.45-.15v5.9c-.7-.05-1.45-.1-2.3-.15-.9,0-1.7-.05-2.35-.05H116.75c.05-.9.1-1.85.15-2.8v-26.1c0-.8-.05-1.7-.05-2.8-.05-1-.1-1.95-.15-2.8h17c.65,0,1.4,0,2.3-.05a17.964,17.964,0,0,0,2.35-.15v5.9a9.763,9.763,0,0,1-1.15-.1,10.875,10.875,0,0,1-1.3-.05,10.462,10.462,0,0,1-1.3-.05H123.35v8.4h9.15c.65,0,1.4,0,2.3-.05a17.964,17.964,0,0,0,2.35-.15v5.9c-.7-.05-1.45-.1-2.3-.15-.9,0-1.7-.05-2.35-.05h-9.15Z" transform="translate(498 185)" fill="#fff"/>
    <path id="패스_42" data-name="패스 42" d="M1.245,2.575H2.49l4.965,8.46q.135.225.24.443l.27.563V2.575H8.97V13.39H7.725L2.745,4.9q-.135-.24-.24-.435t-.255-.54V13.39h-1Zm24.18,0v.93h-5.46v3.87H25.11v.93H19.965V12.46H25.53v.93H18.915V2.575Zm8.97,0H35.52l2.43,9.69h.015l2.58-9.69H41.73l2.58,9.69h.015l2.445-9.69h1.095L44.88,13.39h-1.2l-2.565-9.6-2.565,9.6h-1.2Zm37.65,6.39V13.39h-1.05V8.965l-3.72-6.39H68.46l3.075,5.43,3-5.43h1.17ZM88.65,2.41a4.457,4.457,0,0,1,1.785.337,3.592,3.592,0,0,1,1.32.968,4.332,4.332,0,0,1,.825,1.522,6.567,6.567,0,0,1,.285,2V8.725a6.567,6.567,0,0,1-.285,2,4.332,4.332,0,0,1-.825,1.523,3.592,3.592,0,0,1-1.32.967,4.889,4.889,0,0,1-3.57,0,3.592,3.592,0,0,1-1.32-.967,4.332,4.332,0,0,1-.825-1.523,6.567,6.567,0,0,1-.285-2V7.24a6.731,6.731,0,0,1,.278-2,4.241,4.241,0,0,1,.817-1.522,3.578,3.578,0,0,1,1.327-.968A4.512,4.512,0,0,1,88.65,2.41Zm0,10.2a2.845,2.845,0,0,0,2.3-1.012A4.511,4.511,0,0,0,91.8,8.635V7.33a4.511,4.511,0,0,0-.848-2.962,3.124,3.124,0,0,0-4.605,0A4.511,4.511,0,0,0,85.5,7.33V8.635a4.511,4.511,0,0,0,.847,2.962A2.845,2.845,0,0,0,88.65,12.61Zm18.045-3.9a1.432,1.432,0,0,1-.2.015h-2.9V13.39h-1.05V2.575h3.735a4.4,4.4,0,0,1,1.44.218,3.093,3.093,0,0,1,1.073.615,2.581,2.581,0,0,1,.668.938,3.011,3.011,0,0,1,.225,1.17V5.74a2.791,2.791,0,0,1-.525,1.7,3.005,3.005,0,0,1-1.425,1.043L109.9,13.39H108.78ZM103.59,3.52V7.78h2.37a3.051,3.051,0,0,0,2.033-.548,1.94,1.94,0,0,0,.622-1.537v-.15a1.885,1.885,0,0,0-.607-1.485,2.775,2.775,0,0,0-1.882-.54Zm19.035,3.675,4.785,6.2h-1.35l-4.185-5.43-1.38,1.425V13.39h-1.05V2.575h1.05v5.46l5.22-5.46h1.41ZM151.05,12.58a3.956,3.956,0,0,0,1.133-.15,2.722,2.722,0,0,0,.855-.413,1.82,1.82,0,0,0,.533-.6,1.464,1.464,0,0,0,.18-.7V10.4a1.8,1.8,0,0,0-.12-.675,1.338,1.338,0,0,0-.435-.547,3.2,3.2,0,0,0-.863-.45,11.378,11.378,0,0,0-1.417-.4,8.8,8.8,0,0,1-1.583-.487,3.638,3.638,0,0,1-1.02-.63,2,2,0,0,1-.54-.78,2.693,2.693,0,0,1-.158-.937V5.155a2.376,2.376,0,0,1,.262-1.118,2.576,2.576,0,0,1,.735-.863,3.6,3.6,0,0,1,1.125-.562,4.761,4.761,0,0,1,1.417-.2,5.91,5.91,0,0,1,1.875.262,5.189,5.189,0,0,1,1.335.653l-.495.855a4.337,4.337,0,0,0-1.2-.593,4.927,4.927,0,0,0-1.515-.217,3.653,3.653,0,0,0-.945.12,2.52,2.52,0,0,0-.788.352,1.864,1.864,0,0,0-.54.563,1.4,1.4,0,0,0-.2.75v.3a1.525,1.525,0,0,0,.128.63,1.337,1.337,0,0,0,.42.51,3.258,3.258,0,0,0,.787.42,8.484,8.484,0,0,0,1.23.36,11.808,11.808,0,0,1,1.74.517,3.742,3.742,0,0,1,1.1.638,2.006,2.006,0,0,1,.57.81,3,3,0,0,1,.165,1.035v.345a2.415,2.415,0,0,1-.255,1.1,2.767,2.767,0,0,1-.727.9,3.508,3.508,0,0,1-1.17.615,5.093,5.093,0,0,1-1.568.225,6.161,6.161,0,0,1-2.018-.323,5.76,5.76,0,0,1-1.658-.878l.54-.885a6.061,6.061,0,0,0,1.583.847A4.671,4.671,0,0,0,151.05,12.58ZM171.33,2.575v.93h-3.465V13.39h-1.05V3.505h-3.45v-.93ZM188.625,13.39H187.5l-1.2-3.36h-4.575l-1.23,3.36h-1.08l4.02-10.815h1.185Zm-6.57-4.275h3.915L184.92,6.19q-.105-.27-.2-.525T184.53,5.1q-.105-.307-.225-.69l-.285-.907q-.15.525-.27.907t-.225.69q-.1.307-.2.563t-.195.525Zm22.62-6.54v.93H201.21V13.39h-1.05V3.505h-3.45v-.93Zm15.51,0v.93h-5.46v3.87h5.145v.93h-5.145V12.46h5.565v.93h-6.615V2.575ZM245.04,2.41a6.042,6.042,0,0,1,1.912.277,5.022,5.022,0,0,1,1.508.8l-.54.825a4.77,4.77,0,0,0-1.395-.72A5.237,5.237,0,0,0,245.04,3.4a3.03,3.03,0,0,0-1.327.278,2.674,2.674,0,0,0-.967.78,3.547,3.547,0,0,0-.593,1.2,5.56,5.56,0,0,0-.2,1.553V8.59a4.46,4.46,0,0,0,.848,2.985,2.946,2.946,0,0,0,2.348.975,4.187,4.187,0,0,0,1.732-.323,4.894,4.894,0,0,0,1.238-.788l.615.825a5.05,5.05,0,0,1-3.6,1.29,3.868,3.868,0,0,1-3.173-1.305,5.612,5.612,0,0,1-1.072-3.66V7.255a5.33,5.33,0,0,1,1.087-3.577A3.823,3.823,0,0,1,245.04,2.41Zm21.315,10.98H265.23l-1.2-3.36h-4.575l-1.23,3.36h-1.08l4.02-10.815h1.185Zm-6.57-4.275H263.7L262.65,6.19q-.1-.27-.195-.525t-.2-.562q-.105-.307-.225-.69l-.285-.907q-.15.525-.27.907t-.225.69q-.105.307-.2.563t-.2.525ZM276.96,5.47q-.09-.195-.165-.337a3.1,3.1,0,0,1-.135-.293q-.06-.15-.12-.322t-.12-.413V13.39h-1.035V2.575h1.29l3.66,7.92,3.675-7.92h1.245V13.39H284.22V4.1a3.915,3.915,0,0,1-.1.413q-.053.173-.113.322a3.1,3.1,0,0,1-.135.293q-.075.143-.165.337l-2.9,6.12h-.99Zm18.24-2.9h3.66a4.483,4.483,0,0,1,1.508.233,3.037,3.037,0,0,1,1.087.645,2.625,2.625,0,0,1,.652.982,3.422,3.422,0,0,1,.217,1.23V5.98a3.225,3.225,0,0,1-.232,1.23,2.89,2.89,0,0,1-.675,1,3.094,3.094,0,0,1-1.087.668,4.2,4.2,0,0,1-1.47.24h-2.61V13.39H295.2Zm1.05.945V8.17h2.355a2.866,2.866,0,0,0,2.025-.6,2.131,2.131,0,0,0,.63-1.62V5.68a2.1,2.1,0,0,0-.607-1.56,2.587,2.587,0,0,0-1.883-.6Zm23.67,9.87H318.8l-1.2-3.36H313.02l-1.23,3.36h-1.08l4.02-10.815h1.185Zm-6.57-4.275h3.915l-1.05-2.925q-.1-.27-.195-.525t-.2-.562q-.105-.307-.225-.69l-.285-.907q-.15.525-.27.907t-.225.69q-.105.307-.2.563t-.2.525Zm15.6-6.54H330V13.39h-1.05Zm14.925-.165a6.33,6.33,0,0,1,1.98.277,5,5,0,0,1,1.515.8l-.54.825a4.69,4.69,0,0,0-1.418-.72,5.6,5.6,0,0,0-1.538-.195,3.153,3.153,0,0,0-1.365.278,2.724,2.724,0,0,0-.982.78,3.373,3.373,0,0,0-.593,1.2,5.762,5.762,0,0,0-.195,1.553V8.59q0,3.96,3.345,3.96.33,0,.682-.03a6.194,6.194,0,0,0,.69-.1,4.744,4.744,0,0,0,.637-.172,2.85,2.85,0,0,0,.525-.24V8.59h-2.55V7.66h3.57V12.6a4.615,4.615,0,0,1-1.612.735,8.253,8.253,0,0,1-1.988.225,4.011,4.011,0,0,1-3.3-1.305,5.64,5.64,0,0,1-1.065-3.66V7.255a5.381,5.381,0,0,1,1.072-3.577A3.868,3.868,0,0,1,343.875,2.41Zm13.365.165h1.245l4.965,8.46q.135.225.24.443l.27.563V2.575h1.005V13.39H363.72L358.74,4.9q-.135-.24-.24-.435t-.255-.54V13.39H357.24Z" transform="translate(501 248)" fill="#fff" opacity="0.85"/>
  </g>
</svg>
