<svg xmlns="http://www.w3.org/2000/svg" width="44.9" height="7.12" viewBox="0 0 44.9 7.12">
  <path id="WORDING" d="M5.98-1.85,7.41-7.11H8.82L6.81-.21H5.23L4.45-2.78,3.67-.21H2.09L.08-7.11H1.5L2.92-1.85l.86-3.1L3.13-7.11H4.51Zm4.66-1.81a4.458,4.458,0,0,0,.09.91,2.125,2.125,0,0,0,.29.79,1.362,1.362,0,0,0,.54.55,1.539,1.539,0,0,0,.84.21,1.587,1.587,0,0,0,.84-.21,1.526,1.526,0,0,0,.55-.55,2.543,2.543,0,0,0,.29-.79,5.313,5.313,0,0,0,.08-.91,4.731,4.731,0,0,0-.09-.93,2.707,2.707,0,0,0-.31-.78,1.772,1.772,0,0,0-.54-.55,1.632,1.632,0,0,0-.82-.2,1.568,1.568,0,0,0-.81.2,1.7,1.7,0,0,0-.55.55,2.436,2.436,0,0,0-.3.78A4.078,4.078,0,0,0,10.64-3.66Zm-1.31,0a4.538,4.538,0,0,1,.22-1.47,3.3,3.3,0,0,1,.62-1.12,2.928,2.928,0,0,1,.97-.72,3.146,3.146,0,0,1,1.26-.25,3.269,3.269,0,0,1,1.27.25,3.106,3.106,0,0,1,.96.72,3.679,3.679,0,0,1,.62,1.12,4.826,4.826,0,0,1,.22,1.47,4.845,4.845,0,0,1-.22,1.48,3.355,3.355,0,0,1-.62,1.12,2.673,2.673,0,0,1-.96.71A3.1,3.1,0,0,1,12.4-.1a2.985,2.985,0,0,1-1.26-.25,2.546,2.546,0,0,1-.97-.71,3.04,3.04,0,0,1-.62-1.12A4.558,4.558,0,0,1,9.33-3.66Zm7.33-2.33c0-.16-.01-.34-.01-.56-.01-.2-.02-.39-.03-.56h2.02a8.811,8.811,0,0,1,1.04.06,2.991,2.991,0,0,1,.89.27,1.726,1.726,0,0,1,.62.58,1.959,1.959,0,0,1,.23.99,1.723,1.723,0,0,1-.09.58,1.614,1.614,0,0,1-.26.45,1.524,1.524,0,0,1-.38.34,2.2,2.2,0,0,1-.46.23,1.581,1.581,0,0,1,.47.54L21.99-.21H20.53L19.5-2.6v.01a2.614,2.614,0,0,0-.2-.32,1.458,1.458,0,0,0-.22-.17,2.172,2.172,0,0,0-.24-.07c-.1,0-.2-.01-.3-.01h-.59v1.83c0,.17,0,.36.01.57a4.446,4.446,0,0,0,.02.55H16.62c.01-.15.02-.33.03-.55s.01-.4.01-.57Zm1.29,1.73h.88a1.68,1.68,0,0,0,.92-.24.78.78,0,0,0,.36-.71.736.736,0,0,0-.29-.61,1.574,1.574,0,0,0-.9-.21h-.97ZM22.74-.21a1.8,1.8,0,0,1,.02-.22c0-.06.01-.14.02-.23V-5.99c0-.16-.01-.34-.01-.56-.01-.2-.02-.39-.03-.56H24.9a4.605,4.605,0,0,1,1.46.23,3.623,3.623,0,0,1,1.16.68,3.176,3.176,0,0,1,.75,1.08,3.68,3.68,0,0,1,.27,1.43,4.078,4.078,0,0,1-.26,1.51,2.889,2.889,0,0,1-.76,1.09,3.037,3.037,0,0,1-1.18.66,4.984,4.984,0,0,1-1.54.22Zm1.33-1.1h.83a2.459,2.459,0,0,0,1.72-.56,2.389,2.389,0,0,0,.61-1.82,3.113,3.113,0,0,0-.16-.99,2.246,2.246,0,0,0-.45-.73,2.261,2.261,0,0,0-.71-.45,2.731,2.731,0,0,0-.92-.15h-.92Zm6.9-.02v.57a4.446,4.446,0,0,0,.02.55H29.62c.01-.15.02-.33.03-.55V-6.55c-.01-.2-.02-.39-.03-.56h1.37a4.791,4.791,0,0,0-.02.56v5.22Zm2.75-3.78v3.78c0,.17,0,.36.01.57s0,.4.01.55H32.39c0-.15.01-.33.02-.55s.01-.4.01-.57V-5.99c0-.16-.01-.34-.01-.56-.01-.2-.02-.39-.02-.56h1.63L36.6-2.29v-3.7c0-.16-.01-.34-.01-.56-.01-.2-.02-.39-.02-.56h1.35c-.01.16-.01.35-.01.56s-.01.41-.01.56v5.4a1.625,1.625,0,0,0,.01.38H36.39Zm11.03-.37a3.679,3.679,0,0,0-1.98-.64,2.467,2.467,0,0,0-.97.18,2.261,2.261,0,0,0-.75.51,2.223,2.223,0,0,0-.48.78,2.624,2.624,0,0,0-.17.98,2.658,2.658,0,0,0,.18,1,1.959,1.959,0,0,0,.49.78,2.161,2.161,0,0,0,.77.51,2.554,2.554,0,0,0,.98.18c.13,0,.27,0,.42-.01a1.234,1.234,0,0,0,.42-.07V-3.22h-.51c-.14,0-.29.01-.46.01s-.34.02-.47.03V-4.34a3.7,3.7,0,0,0,.49.02c.18.01.34.01.49.01h1.78c-.01.17-.01.36-.01.57s-.01.4-.01.56V-.44a6.591,6.591,0,0,1-.9.22,6.528,6.528,0,0,1-1.34.12,3.978,3.978,0,0,1-1.45-.25,3.143,3.143,0,0,1-1.15-.71,3.049,3.049,0,0,1-.76-1.12,3.881,3.881,0,0,1-.27-1.49,3.849,3.849,0,0,1,.27-1.47,3.32,3.32,0,0,1,.76-1.12,3.435,3.435,0,0,1,1.15-.71,4.2,4.2,0,0,1,1.45-.25,7.037,7.037,0,0,1,1.03.08,8.247,8.247,0,0,1,1.1.31Z" transform="translate(-0.08 7.22)" fill="#0d0d0d" opacity="0.6"/>
</svg>
